<svg xmlns="http://www.w3.org/2000/svg" xmlns:xlink="http://www.w3.org/1999/xlink" xmlns:inkscape="http://www.inkscape.org/namespaces/inkscape" version="1.1" width="291.007" height="202.87557" viewBox="0 0 291.007 202.87557">
<path transform="matrix(1,0,0,-1,0,202.87557)" d="M55.04099 98.21836C56.86789 113.73716 53.45758 128.1799 69.03989 147.06468 78.2738 158.2556 88.00279 167.19432 108.1436 171.64134 130.8862 176.66259 153.5177 170.47008 169.28491 155.15392L176.72949 146.70897C181.5527 139.89989 183.65259 132.66245 185.6615 123.58701 196.0173 122.53025 211.3417 133.18112 226.9813 118.86277 235.7273 110.85545 235.39221 99.74253 236.7384 92.87669 238.79071 82.41099 257.5198 97.92246 270.4316 71.48997 280.0073 51.88658 271.0453 30.36009 256.774 22.39268 244.1399 15.33983 205.14029 18.25694 188.057 18.01915 164.1601 17.687 139.91 17.96581 116.05701 18.10753 88.8589 18.26915 49.38897 13.3463 32.80439 25.78893 28.2196 29.22874 26.906 30.26707 23.77399 34.6433 11.08839 52.36729 13.87429 72.18321 29.21969 86.75437 40.53978 97.50376 50.35418 95.29075 55.04099 98.21836M45.8471 103.96104C41.58839 103.26402 37.68929 101.92405 33.7557 100.38059 26.23218 97.42893 13.72948 84.65513 10.11188 73.7224 5.59629 60.07591 7.14399 45.66039 14.23009 33.20409 15.42319 31.10692 15.89799 30.4796 17.41849 28.37328 19.6777 25.2429 19.01319 26.40404 21.81238 23.70482 36.48339 9.55882 50.38879 9.39354 74.0569 9.9182 96.32961 10.41185 118.7919 9.29869 141.05689 9.77989 162.88172 10.25169 185.17679 9.86693 207.0568 9.82787 232.9831 9.78136 246.3649 5.5963 264.963 17.97203 279.5362 27.66966 285.4107 49.08519 281.4864 66.27721 277.517 83.66673 265.5642 96.77598 245.84439 97.59556 243.8349 102.72776 242.60611 110.17039 240.168 114.8231 231.2403 131.85874 212.45429 138.9116 193.40799 133.32798 191.8858 134.50009 192.794 133.4708 191.6199 135.4548L187.85642 144.6173C167.23709 189.65099 87.1505 197.27928 56.64199 144.213 54.65268 140.75304 52.48468 136.53708 51.00669 132.79795 46.83579 122.24595 48.12249 114.51646 45.8471 103.96104" fill="#89cff0" fill-rule="evenodd"/>
<path transform="matrix(1,0,0,-1,0,202.87557)" stroke-width="1" stroke-linecap="butt" stroke-miterlimit="10" stroke-linejoin="miter" fill="none" stroke="#89cff0" d="M55.04099 98.21836C56.86789 113.73716 53.45758 128.1799 69.03989 147.06468 78.2738 158.2556 88.00279 167.19432 108.1436 171.64134 130.8862 176.66259 153.5177 170.47008 169.28491 155.15392L176.72949 146.70897C181.5527 139.89989 183.65259 132.66245 185.6615 123.58701 196.0173 122.53025 211.3417 133.18112 226.9813 118.86277 235.7273 110.85545 235.39221 99.74253 236.7384 92.87669 238.79071 82.41099 257.5198 97.92246 270.4316 71.48997 280.0073 51.88658 271.0453 30.36009 256.774 22.39268 244.1399 15.33983 205.14029 18.25694 188.057 18.01915 164.1601 17.687 139.91 17.96581 116.05701 18.10753 88.8589 18.26915 49.38897 13.3463 32.80439 25.78893 28.2196 29.22874 26.906 30.26707 23.77399 34.6433 11.08839 52.36729 13.87429 72.18321 29.21969 86.75437 40.53978 97.50376 50.35418 95.29075 55.04099 98.21836M45.8471 103.96104C41.58839 103.26402 37.68929 101.92405 33.7557 100.38059 26.23218 97.42893 13.72948 84.65513 10.11188 73.7224 5.59629 60.07591 7.14399 45.66039 14.23009 33.20409 15.42319 31.10692 15.89799 30.4796 17.41849 28.37328 19.6777 25.2429 19.01319 26.40404 21.81238 23.70482 36.48339 9.55882 50.38879 9.39354 74.0569 9.9182 96.32961 10.41185 118.7919 9.29869 141.05689 9.77989 162.88172 10.25169 185.17679 9.86693 207.0568 9.82787 232.9831 9.78136 246.3649 5.5963 264.963 17.97203 279.5362 27.66966 285.4107 49.08519 281.4864 66.27721 277.517 83.66673 265.5642 96.77598 245.84439 97.59556 243.8349 102.72776 242.60611 110.17039 240.168 114.8231 231.2403 131.85874 212.45429 138.9116 193.40799 133.32798 191.8858 134.50009 192.794 133.4708 191.6199 135.4548L187.85642 144.6173C167.23709 189.65099 87.1505 197.27928 56.64199 144.213 54.65268 140.75304 52.48468 136.53708 51.00669 132.79795 46.83579 122.24595 48.12249 114.51646 45.8471 103.96104"/>
<path transform="matrix(1,0,0,-1,0,202.87557)" d="M151.8711 68.74791 146.8382 69.0714C142.5635 64.58958 143.84049 57.33739 134.09961 57.9431 125.66049 58.46812 126.57019 64.59288 121.24731 68.82982 112.6563 67.86839 115.64149 61.23448 118.88321 56.81078 129.62961 42.14598 158.26859 52.27184 151.8711 68.74791" fill="#89cff0" fill-rule="evenodd"/>
<path transform="matrix(1,0,0,-1,0,202.87557)" stroke-width="1" stroke-linecap="butt" stroke-miterlimit="10" stroke-linejoin="miter" fill="none" stroke="#89cff0" d="M151.8711 68.74791 146.8382 69.0714C142.5635 64.58958 143.84049 57.33739 134.09961 57.9431 125.66049 58.46812 126.57019 64.59288 121.24731 68.82982 112.6563 67.86839 115.64149 61.23448 118.88321 56.81078 129.62961 42.14598 158.26859 52.27184 151.8711 68.74791"/>
<path transform="matrix(1,0,0,-1,0,202.87557)" d="M177.68109 87.54026C181.50449 82.26585 178.86151 71.30528 187.25821 75.59959 188.0072 76.43748 187.90201 75.78489 188.53131 77.51389 189.357 79.78159 189.0469 78.32334 189.12201 80.90879 189.32102 87.77866 186.2341 92.01878 180.1524 95.02 176.12381 93.12949 169.51792 97.93882 162.88791 89.06016 159.97989 85.16563 160.8252 81.05064 161.2095 76.72861L165.0581 76.69065C165.85721 77.79246 165.6914 77.08091 166.3377 79.05613 168.0087 84.16441 165.43881 83.2125 169.216 86.81455 170.34311 87.88938 171.4143 88.85154 173.54901 89.10496 178.18909 89.65574 177.66129 87.56028 177.68109 87.54026" fill="#89cff0" fill-rule="evenodd"/>
<path transform="matrix(1,0,0,-1,0,202.87557)" stroke-width="1" stroke-linecap="butt" stroke-miterlimit="10" stroke-linejoin="miter" fill="none" stroke="#89cff0" d="M177.68109 87.54026C181.50449 82.26585 178.86151 71.30528 187.25821 75.59959 188.0072 76.43748 187.90201 75.78489 188.53131 77.51389 189.357 79.78159 189.0469 78.32334 189.12201 80.90879 189.32102 87.77866 186.2341 92.01878 180.1524 95.02 176.12381 93.12949 169.51792 97.93882 162.88791 89.06016 159.97989 85.16563 160.8252 81.05064 161.2095 76.72861L165.0581 76.69065C165.85721 77.79246 165.6914 77.08091 166.3377 79.05613 168.0087 84.16441 165.43881 83.2125 169.216 86.81455 170.34311 87.88938 171.4143 88.85154 173.54901 89.10496 178.18909 89.65574 177.66129 87.56028 177.68109 87.54026"/>
<path transform="matrix(1,0,0,-1,0,202.87557)" d="M80.80879 89.65403C84.5089 89.65403 81.0251 89.17783 80.1407 83.44614 79.59669 79.92295 80.13271 78.39085 81.6147 76.2169L85.5015 76.15989C86.3349 81.09116 84.9261 83.07175 88.5712 86.00413 90.1033 86.42649 90.52769 87.73643 94.79269 87.86167 95.51289 88.73106 93.6109 90.54893 97.91389 87.88767 103.3624 84.51792 97.7713 78.80894 105.0569 76.10178 108.9735 80.66795 107.8828 86.22276 103.5838 90.603L102.04089 92.74229C99.6467 95.94859 95.14301 97.18418 90.1787 96.16746 84.8652 95.0792 83.18851 92.61558 80.80879 89.65403" fill="#89cff0" fill-rule="evenodd"/>
<path transform="matrix(1,0,0,-1,0,202.87557)" stroke-width="1" stroke-linecap="butt" stroke-miterlimit="10" stroke-linejoin="miter" fill="none" stroke="#89cff0" d="M80.80879 89.65403C84.5089 89.65403 81.0251 89.17783 80.1407 83.44614 79.59669 79.92295 80.13271 78.39085 81.6147 76.2169L85.5015 76.15989C86.3349 81.09116 84.9261 83.07175 88.5712 86.00413 90.1033 86.42649 90.52769 87.73643 94.79269 87.86167 95.51289 88.73106 93.6109 90.54893 97.91389 87.88767 103.3624 84.51792 97.7713 78.80894 105.0569 76.10178 108.9735 80.66795 107.8828 86.22276 103.5838 90.603L102.04089 92.74229C99.6467 95.94859 95.14301 97.18418 90.1787 96.16746 84.8652 95.0792 83.18851 92.61558 80.80879 89.65403"/>
<path transform="matrix(1,0,0,-1,0,202.87557)" d="M177.68109 87.54026C177.66129 87.56028 178.18909 89.65574 173.54901 89.10496 171.4143 88.85154 170.34311 87.88938 169.216 86.81455 165.43881 83.2125 168.0087 84.16441 166.3377 79.05613 165.6914 77.08091 165.85721 77.79246 165.0581 76.69065L161.2095 76.72861C160.8252 81.05064 159.97989 85.16563 162.88791 89.06016 169.51792 97.93882 176.12381 93.12949 180.1524 95.02 168.9169 99.0792 159.4336 92.11765 159.5853 80.89353 159.68881 73.25902 166.72492 73.34373 167.797 79.08018 168.9524 85.26109 169.0607 89.54368 177.68109 87.54026" fill="#89cff0" fill-rule="evenodd"/>
<path transform="matrix(1,0,0,-1,0,202.87557)" stroke-width="1" stroke-linecap="butt" stroke-miterlimit="10" stroke-linejoin="miter" fill="none" stroke="#89cff0" d="M177.68109 87.54026C177.66129 87.56028 178.18909 89.65574 173.54901 89.10496 171.4143 88.85154 170.34311 87.88938 169.216 86.81455 165.43881 83.2125 168.0087 84.16441 166.3377 79.05613 165.6914 77.08091 165.85721 77.79246 165.0581 76.69065L161.2095 76.72861C160.8252 81.05064 159.97989 85.16563 162.88791 89.06016 169.51792 97.93882 176.12381 93.12949 180.1524 95.02 168.9169 99.0792 159.4336 92.11765 159.5853 80.89353 159.68881 73.25902 166.72492 73.34373 167.797 79.08018 168.9524 85.26109 169.0607 89.54368 177.68109 87.54026"/>
<path transform="matrix(1,0,0,-1,0,202.87557)" d="M94.79269 87.86167 98.16789 86.99229C99.98689 81.70652 98.8768 79.12876 102.3476 75.26194 108.47321 74.67882 109.28619 77.3729 108.3329 83.06687 107.41341 88.56016 105.6375 90.89194 102.04089 92.74229L103.5838 90.603C107.8828 86.22276 108.9735 80.66795 105.0569 76.10178 97.7713 78.80894 103.3624 84.51792 97.91389 87.88767 93.6109 90.54893 95.51289 88.73106 94.79269 87.86167" fill="#89cff0" fill-rule="evenodd"/>
<path transform="matrix(1,0,0,-1,0,202.87557)" stroke-width="1" stroke-linecap="butt" stroke-miterlimit="10" stroke-linejoin="miter" fill="none" stroke="#89cff0" d="M94.79269 87.86167 98.16789 86.99229C99.98689 81.70652 98.8768 79.12876 102.3476 75.26194 108.47321 74.67882 109.28619 77.3729 108.3329 83.06687 107.41341 88.56016 105.6375 90.89194 102.04089 92.74229L103.5838 90.603C107.8828 86.22276 108.9735 80.66795 105.0569 76.10178 97.7713 78.80894 103.3624 84.51792 97.91389 87.88767 93.6109 90.54893 95.51289 88.73106 94.79269 87.86167"/>
<path transform="matrix(1,0,0,-1,0,202.87557)" d="M88.5712 86.00413C84.9261 83.07175 86.3349 81.09116 85.5015 76.15989L81.6147 76.2169C80.13271 78.39085 79.59669 79.92295 80.1407 83.44614 81.0251 89.17783 84.5089 89.65403 80.80879 89.65403 78.6434 83.84959 78.21449 81.90122 79.70239 75.57883 88.93739 73.21361 86.0929 78.13767 88.5712 86.00413" fill="#89cff0" fill-rule="evenodd"/>
<path transform="matrix(1,0,0,-1,0,202.87557)" stroke-width="1" stroke-linecap="butt" stroke-miterlimit="10" stroke-linejoin="miter" fill="none" stroke="#89cff0" d="M88.5712 86.00413C84.9261 83.07175 86.3349 81.09116 85.5015 76.15989L81.6147 76.2169C80.13271 78.39085 79.59669 79.92295 80.1407 83.44614 81.0251 89.17783 84.5089 89.65403 80.80879 89.65403 78.6434 83.84959 78.21449 81.90122 79.70239 75.57883 88.93739 73.21361 86.0929 78.13767 88.5712 86.00413"/>
</svg>
