<svg xmlns="http://www.w3.org/2000/svg" xmlns:xlink="http://www.w3.org/1999/xlink" xmlns:inkscape="http://www.inkscape.org/namespaces/inkscape" version="1.1" width="318.5127" height="188.49182" viewBox="0 0 318.5127 188.49182">
<path transform="matrix(1,0,0,-1,0,188.49182)" d="M224.14716 118.47247C231.10193 118.15466 233.71295 123.22723 245.27326 123.12073 275.06474 122.84607 303.81266 84.30536 285.23606 45.28845 281.74855 37.96423 273.53886 28.65247 266.98036 24.69983 264.50236 23.20654 261.73176 21.51483 258.61134 20.11737 244.55713 13.82324 227.02173 15.87646 211.25153 15.89087 193.96186 15.90674 176.56226 15.69617 159.25165 15.82056 124.29165 16.07202 68.58205 9.50928 47.84723 28.02576 43.54503 31.86755 37.13253 40.70996 34.77894 46.73572 29.08444 61.31555 31.33934 76.38507 38.86223 87.89594 51.28763 106.90857 68.17705 113.99628 91.85625 111.57574 97.57655 110.99097 98.06045 111.13867 99.70055 116.05084 100.86015 119.52466 101.54565 123.05353 102.74665 125.99872 121.31644 171.53168 177.98896 175.84516 203.41223 149.48267 207.93015 144.79834 211.57184 142.52985 215.65225 135.85474 218.16263 131.74793 221.85984 121.73822 224.14716 118.47247M91.29244 120.31122C42.95263 124.96863 6.12524 79.47827 31.81474 34.02075 36.10753 26.42493 45.64924 18.24445 53.16134 14.19037 62.69824 9.04352 75.23753 7.22113 87.24994 7.23132L209.25165 7.44592C222.51953 7.47968 236.36225 6.12524 249.07303 8.41113 260.10606 10.39502 270.56446 16.38293 276.79536 21.73596 312.38746 52.31464 304.24916 110.13776 263.51844 127.76587 250.75595 133.28943 242.81156 132.31458 229.25153 128.76618 227.55585 130.65155 225.14804 137.43256 219.68006 144.74506L206.61795 157.79492C175.96643 180.91992 138.91535 179.88306 111.48415 154.15552 105.27544 148.33234 104.49645 144.61896 100.15125 139.15345 98.98505 147.97577 90.61295 172.60486 85.89584 178.01026 82.09374 182.36658 75.59103 181.05237 75.19025 175.38196 74.94785 171.94977 83.00104 153.81226 84.79175 150.11707 88.59866 142.26026 92.55755 129.86914 91.29244 120.31122" fill="#89cff0" fill-rule="evenodd"/>
<path transform="matrix(1,0,0,-1,0,188.49182)" stroke-width="1" stroke-linecap="butt" stroke-miterlimit="10" stroke-linejoin="miter" fill="none" stroke="#89cff0" d="M224.14716 118.47247C231.10193 118.15466 233.71295 123.22723 245.27326 123.12073 275.06474 122.84607 303.81266 84.30536 285.23606 45.28845 281.74855 37.96423 273.53886 28.65247 266.98036 24.69983 264.50236 23.20654 261.73176 21.51483 258.61134 20.11737 244.55713 13.82324 227.02173 15.87646 211.25153 15.89087 193.96186 15.90674 176.56226 15.69617 159.25165 15.82056 124.29165 16.07202 68.58205 9.50928 47.84723 28.02576 43.54503 31.86755 37.13253 40.70996 34.77894 46.73572 29.08444 61.31555 31.33934 76.38507 38.86223 87.89594 51.28763 106.90857 68.17705 113.99628 91.85625 111.57574 97.57655 110.99097 98.06045 111.13867 99.70055 116.05084 100.86015 119.52466 101.54565 123.05353 102.74665 125.99872 121.31644 171.53168 177.98896 175.84516 203.41223 149.48267 207.93015 144.79834 211.57184 142.52985 215.65225 135.85474 218.16263 131.74793 221.85984 121.73822 224.14716 118.47247M91.29244 120.31122C42.95263 124.96863 6.12524 79.47827 31.81474 34.02075 36.10753 26.42493 45.64924 18.24445 53.16134 14.19037 62.69824 9.04352 75.23753 7.22113 87.24994 7.23132L209.25165 7.44592C222.51953 7.47968 236.36225 6.12524 249.07303 8.41113 260.10606 10.39502 270.56446 16.38293 276.79536 21.73596 312.38746 52.31464 304.24916 110.13776 263.51844 127.76587 250.75595 133.28943 242.81156 132.31458 229.25153 128.76618 227.55585 130.65155 225.14804 137.43256 219.68006 144.74506L206.61795 157.79492C175.96643 180.91992 138.91535 179.88306 111.48415 154.15552 105.27544 148.33234 104.49645 144.61896 100.15125 139.15345 98.98505 147.97577 90.61295 172.60486 85.89584 178.01026 82.09374 182.36658 75.59103 181.05237 75.19025 175.38196 74.94785 171.94977 83.00104 153.81226 84.79175 150.11707 88.59866 142.26026 92.55755 129.86914 91.29244 120.31122"/>
<path transform="matrix(1,0,0,-1,0,188.49182)" d="M111.47335 63.55005 118.40525 62.86603C120.15874 66.59564 118.61755 80.36176 130.81444 74.02747 132.32105 68.67737 130.63755 67.37396 133.10114 63.32812 141.93735 61.66785 141.85083 67.61383 139.71524 74.63898 135.34815 89.00372 108.22175 90.33777 111.47335 63.55005" fill="#89cff0" fill-rule="evenodd"/>
<path transform="matrix(1,0,0,-1,0,188.49182)" stroke-width="1" stroke-linecap="butt" stroke-miterlimit="10" stroke-linejoin="miter" fill="none" stroke="#89cff0" d="M111.47335 63.55005 118.40525 62.86603C120.15874 66.59564 118.61755 80.36176 130.81444 74.02747 132.32105 68.67737 130.63755 67.37396 133.10114 63.32812 141.93735 61.66785 141.85083 67.61383 139.71524 74.63898 135.34815 89.00372 108.22175 90.33777 111.47335 63.55005"/>
<path transform="matrix(1,0,0,-1,0,188.49182)" d="M179.40793 43.15363C183.78974 46.96222 185.86444 49.44965 183.55985 56.75513 171.14243 60.25195 181.64023 47.39886 167.19065 46.99237 153.99906 46.62152 161.54544 56.96173 150.55124 57.66705 142.49744 43.94116 166.44364 31.88397 179.40793 43.15363" fill="#89cff0" fill-rule="evenodd"/>
<path transform="matrix(1,0,0,-1,0,188.49182)" stroke-width="1" stroke-linecap="butt" stroke-miterlimit="10" stroke-linejoin="miter" fill="none" stroke="#89cff0" d="M179.40793 43.15363C183.78974 46.96222 185.86444 49.44965 183.55985 56.75513 171.14243 60.25195 181.64023 47.39886 167.19065 46.99237 153.99906 46.62152 161.54544 56.96173 150.55124 57.66705 142.49744 43.94116 166.44364 31.88397 179.40793 43.15363"/>
<path transform="matrix(1,0,0,-1,0,188.49182)" d="M194.01285 76.03046C194.28534 70.06262 191.48896 68.96594 195.25165 64.36194 203.41904 67.63196 196.18643 74.69104 205.25675 75.90778L210.34214 75.46375C212.21555 71.15936 212.38764 66.96094 213.79734 63.09625L219.98474 62.51202C224.47684 74.72595 215.39804 87.82007 201.84845 83.88013 197.04425 82.48328 195.65695 80.07666 194.01285 76.03046" fill="#89cff0" fill-rule="evenodd"/>
<path transform="matrix(1,0,0,-1,0,188.49182)" stroke-width="1" stroke-linecap="butt" stroke-miterlimit="10" stroke-linejoin="miter" fill="none" stroke="#89cff0" d="M194.01285 76.03046C194.28534 70.06262 191.48896 68.96594 195.25165 64.36194 203.41904 67.63196 196.18643 74.69104 205.25675 75.90778L210.34214 75.46375C212.21555 71.15936 212.38764 66.96094 213.79734 63.09625L219.98474 62.51202C224.47684 74.72595 215.39804 87.82007 201.84845 83.88013 197.04425 82.48328 195.65695 80.07666 194.01285 76.03046"/>
<path transform="matrix(1,0,0,-1,0,188.49182)" d="M205.25675 75.90778C196.18643 74.69104 203.41904 67.63196 195.25165 64.36194 191.48896 68.96594 194.28534 70.06262 194.01285 76.03046 191.63605 72.19714 190.24454 60.88715 197.69904 63.80377 203.81626 66.19678 196.29224 70.71802 205.25675 75.90778" fill="#89cff0" fill-rule="evenodd"/>
<path transform="matrix(1,0,0,-1,0,188.49182)" stroke-width="1" stroke-linecap="butt" stroke-miterlimit="10" stroke-linejoin="miter" fill="none" stroke="#89cff0" d="M205.25675 75.90778C196.18643 74.69104 203.41904 67.63196 195.25165 64.36194 191.48896 68.96594 194.28534 70.06262 194.01285 76.03046 191.63605 72.19714 190.24454 60.88715 197.69904 63.80377 203.81626 66.19678 196.29224 70.71802 205.25675 75.90778"/>
</svg>
