<svg xmlns="http://www.w3.org/2000/svg" xmlns:xlink="http://www.w3.org/1999/xlink" xmlns:inkscape="http://www.inkscape.org/namespaces/inkscape" version="1.1" width="316.29197" height="218.69022" viewBox="0 0 316.29197 218.69022">
<path transform="matrix(1,0,0,-1,0,218.69022)" d="M91.77953 144.55898C93.55514 152.79726 95.61964 159.2903 98.98124 166.43837 102.94773 174.8727 106.53693 177.38869 111.59544 182.69972 140.08135 212.60768 205.82836 206.40102 217.96236 152.9424 227.54064 150.9446 236.91905 160.58034 255.87804 154.44313 308.86494 137.29091 295.33433 69.31874 257.407 59.06215 244.60713 55.60097 251.91744 50.74635 242.50585 40.71095 226.61574 23.76759 214.41854 25.51491 194.46096 31.52065 188.79555 33.22536 184.35704 27.71877 180.04924 25.41566 158.35375 13.81764 137.14434 17.97194 119.99444 33.76796 111.57244 41.52553 115.30733 46.61061 104.84864 41.6664 52.32583 16.83632 6.08254 75.51552 33.52334 119.9463 42.21064 134.0121 55.79253 144.74575 72.72392 146.16823 81.79981 146.93044 84.94012 144.20803 91.77953 144.55898M85.05403 154.38527C43.91683 159.84023 9.67204 119.95277 18.75483 77.58046 22.12603 61.85243 28.46604 53.64357 38.37113 43.07497 45.87352 35.06984 64.93033 28.06129 78.25572 27.46681 92.66053 26.82423 97.88224 29.85353 109.27663 34.27199 115.03783 19.00771 144.00444 6.08253 169.18264 12.0829 184.02455 15.62025 184.60683 18.77675 189.30324 20.99562 192.86043 22.67628 195.96013 20.47939 200.02553 19.53749 203.43004 18.74892 208.75685 18.22731 212.27974 18.26808 230.91445 18.485 248.23805 27.89345 255.26885 45.26527 259.14775 54.8495 262.80165 47.89333 280.68855 62.64845 304.08454 81.94838 310.2094 134.01857 271.1559 157.03676 256.92234 165.42617 240.94374 166.17995 223.75014 162.61623 221.08043 176.50002 209.47145 189.12209 198.02236 196.89894 186.10945 204.99098 168.55364 210.23744 150.29204 208.94252 142.50975 208.39064 132.91425 205.98195 126.26473 203.18422L112.34574 195.0171C101.02784 186.0984 89.70094 172.74208 85.05403 154.38527" fill="#89cff0" fill-rule="evenodd"/>
<path transform="matrix(1,0,0,-1,0,218.69022)" stroke-width="1" stroke-linecap="butt" stroke-miterlimit="10" stroke-linejoin="miter" fill="none" stroke="#89cff0" d="M91.77953 144.55898C93.55514 152.79726 95.61964 159.2903 98.98124 166.43837 102.94773 174.8727 106.53693 177.38869 111.59544 182.69972 140.08135 212.60768 205.82836 206.40102 217.96236 152.9424 227.54064 150.9446 236.91905 160.58034 255.87804 154.44313 308.86494 137.29091 295.33433 69.31874 257.407 59.06215 244.60713 55.60097 251.91744 50.74635 242.50585 40.71095 226.61574 23.76759 214.41854 25.51491 194.46096 31.52065 188.79555 33.22536 184.35704 27.71877 180.04924 25.41566 158.35375 13.81764 137.14434 17.97194 119.99444 33.76796 111.57244 41.52553 115.30733 46.61061 104.84864 41.6664 52.32583 16.83632 6.08254 75.51552 33.52334 119.9463 42.21064 134.0121 55.79253 144.74575 72.72392 146.16823 81.79981 146.93044 84.94012 144.20803 91.77953 144.55898M85.05403 154.38527C43.91683 159.84023 9.67204 119.95277 18.75483 77.58046 22.12603 61.85243 28.46604 53.64357 38.37113 43.07497 45.87352 35.06984 64.93033 28.06129 78.25572 27.46681 92.66053 26.82423 97.88224 29.85353 109.27663 34.27199 115.03783 19.00771 144.00444 6.08253 169.18264 12.0829 184.02455 15.62025 184.60683 18.77675 189.30324 20.99562 192.86043 22.67628 195.96013 20.47939 200.02553 19.53749 203.43004 18.74892 208.75685 18.22731 212.27974 18.26808 230.91445 18.485 248.23805 27.89345 255.26885 45.26527 259.14775 54.8495 262.80165 47.89333 280.68855 62.64845 304.08454 81.94838 310.2094 134.01857 271.1559 157.03676 256.92234 165.42617 240.94374 166.17995 223.75014 162.61623 221.08043 176.50002 209.47145 189.12209 198.02236 196.89894 186.10945 204.99098 168.55364 210.23744 150.29204 208.94252 142.50975 208.39064 132.91425 205.98195 126.26473 203.18422L112.34574 195.0171C101.02784 186.0984 89.70094 172.74208 85.05403 154.38527"/>
<path transform="matrix(1,0,0,-1,0,218.69022)" d="M186.63475 93.31483 194.25655 92.79408C195.20696 98.36806 194.74773 105.27467 201.30913 105.30678 208.29903 105.34084 206.08065 97.77455 207.65953 92.43214 214.30513 91.07655 217.64403 92.72743 214.92595 103.58241 210.94805 119.46779 182.39354 117.82594 186.63475 93.31483" fill="#89cff0" fill-rule="evenodd"/>
<path transform="matrix(1,0,0,-1,0,218.69022)" stroke-width="1" stroke-linecap="butt" stroke-miterlimit="10" stroke-linejoin="miter" fill="none" stroke="#89cff0" d="M186.63475 93.31483 194.25655 92.79408C195.20696 98.36806 194.74773 105.27467 201.30913 105.30678 208.29903 105.34084 206.08065 97.77455 207.65953 92.43214 214.30513 91.07655 217.64403 92.72743 214.92595 103.58241 210.94805 119.46779 182.39354 117.82594 186.63475 93.31483"/>
<path transform="matrix(1,0,0,-1,0,218.69022)" d="M117.52354 113.41603C105.33993 110.38014 104.19613 96.63808 107.00983 93.60048 111.87293 88.34987 114.47623 95.5536 115.06783 99.69496 116.13964 107.19521 125.35053 108.84865 126.70524 99.79848 127.47533 94.65297 126.61164 94.7809 128.80934 93.33522 139.79845 86.10634 138.87773 118.73695 117.52354 113.41603" fill="#89cff0" fill-rule="evenodd"/>
<path transform="matrix(1,0,0,-1,0,218.69022)" stroke-width="1" stroke-linecap="butt" stroke-miterlimit="10" stroke-linejoin="miter" fill="none" stroke="#89cff0" d="M117.52354 113.41603C105.33993 110.38014 104.19613 96.63808 107.00983 93.60048 111.87293 88.34987 114.47623 95.5536 115.06783 99.69496 116.13964 107.19521 125.35053 108.84865 126.70524 99.79848 127.47533 94.65297 126.61164 94.7809 128.80934 93.33522 139.79845 86.10634 138.87773 118.73695 117.52354 113.41603"/>
<path transform="matrix(1,0,0,-1,0,218.69022)" d="M147.28334 87.21461C137.11943 83.13673 146.69576 71.63881 153.56435 69.15504 175.71733 61.14406 185.07964 87.00429 174.28444 86.71999 169.56334 86.5956 171.78514 81.54359 167.43624 77.90224 164.01143 75.03468 158.29644 75.37123 154.90084 77.77614 149.95354 81.28029 152.54894 84.69997 147.28334 87.21461" fill="#89cff0" fill-rule="evenodd"/>
<path transform="matrix(1,0,0,-1,0,218.69022)" stroke-width="1" stroke-linecap="butt" stroke-miterlimit="10" stroke-linejoin="miter" fill="none" stroke="#89cff0" d="M147.28334 87.21461C137.11943 83.13673 146.69576 71.63881 153.56435 69.15504 175.71733 61.14406 185.07964 87.00429 174.28444 86.71999 169.56334 86.5956 171.78514 81.54359 167.43624 77.90224 164.01143 75.03468 158.29644 75.37123 154.90084 77.77614 149.95354 81.28029 152.54894 84.69997 147.28334 87.21461"/>
</svg>
