<svg xmlns="http://www.w3.org/2000/svg" xmlns:xlink="http://www.w3.org/1999/xlink" xmlns:inkscape="http://www.inkscape.org/namespaces/inkscape" version="1.1" width="74.778568" height="102.33533" viewBox="0 0 74.778568 102.33533">
<path transform="matrix(1,0,0,-1,0,102.33533)" d="M51.10107 56.51111C56.21167 55.5658 58.02368 52.70703 64.19482 54.77344 63.56494 44.21558 61.5769 31.63708 60.19556 21.08008 59.54102 16.07971 59.91284 12.57092 52.29248 10.14258 43.8479 7.4519 28.01807 7.33887 20.09131 11.42468 15.11597 13.98914 15.43359 17.92761 14.56104 24.29993 13.04736 35.34937 11.92773 46.36646 10.61938 57.32581 16.36646 53.60669 29.72388 52.96619 37.4187 54.4895 42.31348 55.45837 45.75977 57.49878 51.10107 56.51111M9.4436 68.63208C21.84814 64.50623 40.18457 64.20129 53.42529 66.1283 58.3689 66.84766 61.61035 67.99316 66.06519 69.27319L64.63525 58.48279C56.12061 55.76538 56.83545 59.62866 49.57715 59.92749 44.63232 60.13062 38.75073 57.97009 33.72729 57.1228 27.83716 56.12952 14.48853 58.0647 10.92676 61.02759 9.42139 62.28015 9.67358 66.45618 9.4436 68.63208M9.04614 80.68213C10.38086 78.8501 11.48438 78.29333 14.46265 77.10828 24.03369 73.30017 62.50781 72.23743 66.81323 80.91541 69.06152 78.33472 70.31421 75.91418 66.56909 73.61902 59.19727 69.10095 45.14624 68.53394 36.5354 68.48669 2.29419 68.2981 2.19604 79.16223 9.04614 80.68213M12.85278 87.3103C22.83667 80.69373 52.26514 81.1261 62.37134 87.32031L63.93677 82.10168C56.54248 76.4613 33.26343 77.17456 23.23364 78.63269 14.72705 79.86938 15.37256 80.96619 11.06055 81.8551L12.85278 87.3103M14.38818 90.5686C17.66333 99.30261 56.12085 99.11218 61.13525 90.73633 58.31152 84.26086 18.26733 83.85803 14.38818 90.5686M30.95532 99.99719C25.62915 99.72339 18.82324 98.03015 14.57983 95.59607 12.73413 94.53735 10.79395 92.62195 9.90503 89.90015 9.49585 88.64722 9.26807 87.12585 8.86279 85.80774 7.75635 82.20801 2.61108 84.79883 2.19897 77.11108 2 73.39856 4.4729 72.06079 5.50391 70.26147 6.45093 68.60852 10.90991 20.18628 12.49756 14.9198 16.39258 2 50.99829 3.11121 59.20166 10.24719 63.57764 14.05408 63.23364 18.37866 64.08984 25.98877 65.46606 38.22705 67.50977 50.86768 68.5498 62.96057 69.76465 77.08215 70.76855 69.39575 72.19067 74.69055 72.77856 76.8783 72.25781 78.74866 71.29102 80.66626 70.3584 82.51648 68.96582 83.5354 67.40674 84.76208 63.05273 88.1875 69.12866 95.76648 50.55688 99.14587 44.02881 100.33386 37.52393 100.33533 30.95532 99.99719" fill="#89cff0" fill-rule="evenodd"/>
<path transform="matrix(1,0,0,-1,0,102.33533)" stroke-width="1" stroke-linecap="butt" stroke-miterlimit="10" stroke-linejoin="miter" fill="none" stroke="#89cff0" d="M51.10107 56.51111C56.21167 55.5658 58.02368 52.70703 64.19482 54.77344 63.56494 44.21558 61.5769 31.63708 60.19556 21.08008 59.54102 16.07971 59.91284 12.57092 52.29248 10.14258 43.8479 7.4519 28.01807 7.33887 20.09131 11.42468 15.11597 13.98914 15.43359 17.92761 14.56104 24.29993 13.04736 35.34937 11.92773 46.36646 10.61938 57.32581 16.36646 53.60669 29.72388 52.96619 37.4187 54.4895 42.31348 55.45837 45.75977 57.49878 51.10107 56.51111M9.4436 68.63208C21.84814 64.50623 40.18457 64.20129 53.42529 66.1283 58.3689 66.84766 61.61035 67.99316 66.06519 69.27319L64.63525 58.48279C56.12061 55.76538 56.83545 59.62866 49.57715 59.92749 44.63232 60.13062 38.75073 57.97009 33.72729 57.1228 27.83716 56.12952 14.48853 58.0647 10.92676 61.02759 9.42139 62.28015 9.67358 66.45618 9.4436 68.63208M9.04614 80.68213C10.38086 78.8501 11.48438 78.29333 14.46265 77.10828 24.03369 73.30017 62.50781 72.23743 66.81323 80.91541 69.06152 78.33472 70.31421 75.91418 66.56909 73.61902 59.19727 69.10095 45.14624 68.53394 36.5354 68.48669 2.29419 68.2981 2.19604 79.16223 9.04614 80.68213M12.85278 87.3103C22.83667 80.69373 52.26514 81.1261 62.37134 87.32031L63.93677 82.10168C56.54248 76.4613 33.26343 77.17456 23.23364 78.63269 14.72705 79.86938 15.37256 80.96619 11.06055 81.8551L12.85278 87.3103M14.38818 90.5686C17.66333 99.30261 56.12085 99.11218 61.13525 90.73633 58.31152 84.26086 18.26733 83.85803 14.38818 90.5686M30.95532 99.99719C25.62915 99.72339 18.82324 98.03015 14.57983 95.59607 12.73413 94.53735 10.79395 92.62195 9.90503 89.90015 9.49585 88.64722 9.26807 87.12585 8.86279 85.80774 7.75635 82.20801 2.61108 84.79883 2.19897 77.11108 2 73.39856 4.4729 72.06079 5.50391 70.26147 6.45093 68.60852 10.90991 20.18628 12.49756 14.9198 16.39258 2 50.99829 3.11121 59.20166 10.24719 63.57764 14.05408 63.23364 18.37866 64.08984 25.98877 65.46606 38.22705 67.50977 50.86768 68.5498 62.96057 69.76465 77.08215 70.76855 69.39575 72.19067 74.69055 72.77856 76.8783 72.25781 78.74866 71.29102 80.66626 70.3584 82.51648 68.96582 83.5354 67.40674 84.76208 63.05273 88.1875 69.12866 95.76648 50.55688 99.14587 44.02881 100.33386 37.52393 100.33533 30.95532 99.99719"/>
<path transform="matrix(1,0,0,-1,0,102.33533)" d="M49.52173 38.78943C51.12842 37.22815 49.56592 36.33496 53.24609 36.80322 55.77344 41.98181 50.60693 46.61536 47.13867 43.67041 43.34277 40.44739 46.22534 32.97253 49.52173 38.78943" fill="#89cff0" fill-rule="evenodd"/>
<path transform="matrix(1,0,0,-1,0,102.33533)" stroke-width="1" stroke-linecap="butt" stroke-miterlimit="10" stroke-linejoin="miter" fill="none" stroke="#89cff0" d="M49.52173 38.78943C51.12842 37.22815 49.56592 36.33496 53.24609 36.80322 55.77344 41.98181 50.60693 46.61536 47.13867 43.67041 43.34277 40.44739 46.22534 32.97253 49.52173 38.78943"/>
<path transform="matrix(1,0,0,-1,0,102.33533)" d="M21.92822 36.92065C23.62622 36.80945 24.69092 37.67883 25.42529 38.69141 26.30542 37.16357 26.97485 36.78259 28.98584 37.02979 29.91455 40.31824 29.30884 44.55884 25.09204 44.4906 21.74902 44.43579 20.09326 39.68237 21.92822 36.92065" fill="#89cff0" fill-rule="evenodd"/>
<path transform="matrix(1,0,0,-1,0,102.33533)" stroke-width="1" stroke-linecap="butt" stroke-miterlimit="10" stroke-linejoin="miter" fill="none" stroke="#89cff0" d="M21.92822 36.92065C23.62622 36.80945 24.69092 37.67883 25.42529 38.69141 26.30542 37.16357 26.97485 36.78259 28.98584 37.02979 29.91455 40.31824 29.30884 44.55884 25.09204 44.4906 21.74902 44.43579 20.09326 39.68237 21.92822 36.92065"/>
<path transform="matrix(1,0,0,-1,0,102.33533)" d="M31.32715 34.19312C28.71313 27.80432 40.68359 25.65234 43.39429 30.88989 44.15991 32.36987 44.28857 35.30969 41.83423 34.1145 40.32007 33.37756 41.62622 32.02917 39.0752 31.23718 33.41406 29.48022 35.54565 34.79297 31.32715 34.19312" fill="#89cff0" fill-rule="evenodd"/>
<path transform="matrix(1,0,0,-1,0,102.33533)" stroke-width="1" stroke-linecap="butt" stroke-miterlimit="10" stroke-linejoin="miter" fill="none" stroke="#89cff0" d="M31.32715 34.19312C28.71313 27.80432 40.68359 25.65234 43.39429 30.88989 44.15991 32.36987 44.28857 35.30969 41.83423 34.1145 40.32007 33.37756 41.62622 32.02917 39.0752 31.23718 33.41406 29.48022 35.54565 34.79297 31.32715 34.19312"/>
</svg>
