<svg xmlns="http://www.w3.org/2000/svg" xmlns:xlink="http://www.w3.org/1999/xlink" xmlns:inkscape="http://www.inkscape.org/namespaces/inkscape" version="1.1" width="278.4742" height="152.9725" viewBox="0 0 278.4742 152.9725">
<path transform="matrix(1,0,0,-1,0,152.9725)" d="M186.55449 54.7498C191.96807 55.38213 256.1844 74.10551 265.88557 76.48979L265.7586 36.10942C256.42366 32.65739 244.14092 29.9373 234.00615 26.96172 223.54912 23.89189 212.7415 20.94206 202.27959 18.0396 189.40117 14.4666 175.1751 6.86748 177.25322 23.27104 178.5706 33.67107 184.47686 44.97026 186.55449 54.7498M131.05449 74.2542C156.40605 81.48161 150.97832 51.80254 128.81914 53.03337 128.94023 56.02129 130.01299 59.77641 130.38213 63.11699 130.8079 66.97197 130.92803 70.37297 131.05449 74.2542M125.32597 90.16386C126.43047 84.14568 125.58965 65.09026 124.47539 58.83049 122.59746 48.27885 116.94853 37.83488 110.60869 32.07109 109.63847 31.18938 109.1248 30.96684 108.18242 30.21025 107.46318 29.632 106.96953 29.06242 106.2332 28.46294 96.08769 20.20195 81.30644 18.43388 68.3748 18.28008 46.01738 18.01408 32.49102 25.72758 23.00029 37.40886 11.65068 51.37822 12.32353 71.48637 12.81426 91.78288 31.53936 78.70427 89.30156 78.30998 113.67949 85.63579 116.09404 86.36113 117.83867 86.91252 120.10674 87.77397 121.7664 88.40459 123.93877 90.04338 125.32597 90.16386M131.16387 89.25786C139.25469 91.92644 150.19707 88.70146 154.85039 84.21672 174.5872 65.19377 151.11748 34.08488 122.429 37.9854 123.22685 39.93425 125.93388 45.49199 127.2498 47.42229 160.2293 47.83183 162.47978 85.63689 130.96416 79.76128L131.16387 89.25786M188.65215 60.75578C190.82549 68.6364 193.77324 76.58928 196.01445 84.75029 196.94023 88.12199 197.096 87.46416 200.34014 88.35735 213.00518 91.84392 259.74153 105.29631 265.8333 106.3438L265.8841 82.23613 188.65215 60.75578M149.31865 93.5031C150.54082 96.9063 152.77715 101.1685 154.48027 104.87114L170.35332 138.4738C176.96611 138.31902 207.22002 127.63615 215.95879 124.94011 223.36162 122.6563 230.7039 120.19011 238.25908 117.82487 241.97734 116.66093 257.83625 112.05559 259.92756 110.6591L206.05107 95.58904C194.75762 92.34343 193.27715 93.64079 191.31084 87.75127 187.51055 76.36674 184.20928 64.45537 180.3079 53.27092 177.40312 44.94353 170.37187 25.7686 172.07207 17.0291 170.50176 17.95573 144.88262 34.59233 144.02861 35.83647 145.41045 36.70158 146.76103 36.86931 148.24883 37.72209 165.0247 47.33342 173.01348 67.37663 163.01055 82.71635 159.02959 88.8217 155.89824 90.41069 149.31865 93.5031M143.83623 95.05949C138.98516 94.92497 135.65508 95.0479 130.64873 94.62383 130.96025 104.65178 122.87041 107.64458 114.38017 110.15141 105.58574 112.74834 96.23613 113.71355 86.91777 114.76067L88.55742 109.49309C92.15117 108.14738 110.65215 108.00761 121.52226 101.69682 125.59453 99.33269 124.76006 96.0883 120.82939 94.6021 118.45293 95.46916 116.21953 97.0164 113.31181 97.85197 89.13457 104.80022 47.86748 105.179 24.63115 97.77141 22.27715 97.02141 18.6292 94.93279 16.83184 95.4395 14.94268 95.97173 13.07207 98.05461 14.90801 100.42448 14.98613 100.52507 16.42119 101.67766 16.68926 101.85649 20.15654 104.16753 28.64141 106.09343 33.43584 107.05949 38.74883 108.12981 48.38506 108.7957 52.80986 110.12309 50.87676 114.88567 52.91826 115.28166 46.50908 114.45329 42.85039 113.98088 39.41924 113.52019 35.80547 112.78947 29.32695 111.47954 22.50225 110.29802 16.89238 107.66386 10.24443 104.54179 7.55156 101.95659 7.43437 93.0153 7.14971 71.22246 5.35527 49.32536 20.19561 32.52678 23.86211 28.37627 27.4002 24.59221 33.04326 21.23039 49.75176 11.27629 77.56181 10.54375 94.19365 16.33525 105.16679 20.1563 109.38359 23.60747 116.30058 30.67253 122.12529 36.62224 116.53642 30.64812 135.74687 33.17278 138.01836 33.47099 137.72637 33.23259 139.57646 32.03008 150.7996 24.73454 161.1956 17.01799 172.78691 10.09099 180.71172 5.35527 183.554 7.18156 192.3538 9.65312 197.87529 11.20329 264.3211 29.37968 267.67414 31.17949 273.11897 34.10197 271.47297 44.24004 271.47785 51.8051 271.48274 60.00749 271.4671 68.21404 271.44416 76.41692 271.42219 84.44218 271.4588 92.46989 271.4173 100.49358 271.36164 111.34209 271.89485 113.31438 262.27815 116.25676 237.56963 123.81645 213.1414 132.30681 188.43926 139.81352 167.46562 146.1873 167.80449 147.61724 159.00273 128.64409 156.53252 123.32011 154.24736 117.37077 151.56475 111.9771L143.83623 95.05949" fill="#89cff0" fill-rule="evenodd"/>
<path transform="matrix(1,0,0,-1,0,152.9725)" stroke-width="1" stroke-linecap="butt" stroke-miterlimit="10" stroke-linejoin="miter" fill="none" stroke="#89cff0" d="M186.55449 54.7498C191.96807 55.38213 256.1844 74.10551 265.88557 76.48979L265.7586 36.10942C256.42366 32.65739 244.14092 29.9373 234.00615 26.96172 223.54912 23.89189 212.7415 20.94206 202.27959 18.0396 189.40117 14.4666 175.1751 6.86748 177.25322 23.27104 178.5706 33.67107 184.47686 44.97026 186.55449 54.7498M131.05449 74.2542C156.40605 81.48161 150.97832 51.80254 128.81914 53.03337 128.94023 56.02129 130.01299 59.77641 130.38213 63.11699 130.8079 66.97197 130.92803 70.37297 131.05449 74.2542M125.32597 90.16386C126.43047 84.14568 125.58965 65.09026 124.47539 58.83049 122.59746 48.27885 116.94853 37.83488 110.60869 32.07109 109.63847 31.18938 109.1248 30.96684 108.18242 30.21025 107.46318 29.632 106.96953 29.06242 106.2332 28.46294 96.08769 20.20195 81.30644 18.43388 68.3748 18.28008 46.01738 18.01408 32.49102 25.72758 23.00029 37.40886 11.65068 51.37822 12.32353 71.48637 12.81426 91.78288 31.53936 78.70427 89.30156 78.30998 113.67949 85.63579 116.09404 86.36113 117.83867 86.91252 120.10674 87.77397 121.7664 88.40459 123.93877 90.04338 125.32597 90.16386M131.16387 89.25786C139.25469 91.92644 150.19707 88.70146 154.85039 84.21672 174.5872 65.19377 151.11748 34.08488 122.429 37.9854 123.22685 39.93425 125.93388 45.49199 127.2498 47.42229 160.2293 47.83183 162.47978 85.63689 130.96416 79.76128L131.16387 89.25786M188.65215 60.75578C190.82549 68.6364 193.77324 76.58928 196.01445 84.75029 196.94023 88.12199 197.096 87.46416 200.34014 88.35735 213.00518 91.84392 259.74153 105.29631 265.8333 106.3438L265.8841 82.23613 188.65215 60.75578M149.31865 93.5031C150.54082 96.9063 152.77715 101.1685 154.48027 104.87114L170.35332 138.4738C176.96611 138.31902 207.22002 127.63615 215.95879 124.94011 223.36162 122.6563 230.7039 120.19011 238.25908 117.82487 241.97734 116.66093 257.83625 112.05559 259.92756 110.6591L206.05107 95.58904C194.75762 92.34343 193.27715 93.64079 191.31084 87.75127 187.51055 76.36674 184.20928 64.45537 180.3079 53.27092 177.40312 44.94353 170.37187 25.7686 172.07207 17.0291 170.50176 17.95573 144.88262 34.59233 144.02861 35.83647 145.41045 36.70158 146.76103 36.86931 148.24883 37.72209 165.0247 47.33342 173.01348 67.37663 163.01055 82.71635 159.02959 88.8217 155.89824 90.41069 149.31865 93.5031M143.83623 95.05949C138.98516 94.92497 135.65508 95.0479 130.64873 94.62383 130.96025 104.65178 122.87041 107.64458 114.38017 110.15141 105.58574 112.74834 96.23613 113.71355 86.91777 114.76067L88.55742 109.49309C92.15117 108.14738 110.65215 108.00761 121.52226 101.69682 125.59453 99.33269 124.76006 96.0883 120.82939 94.6021 118.45293 95.46916 116.21953 97.0164 113.31181 97.85197 89.13457 104.80022 47.86748 105.179 24.63115 97.77141 22.27715 97.02141 18.6292 94.93279 16.83184 95.4395 14.94268 95.97173 13.07207 98.05461 14.90801 100.42448 14.98613 100.52507 16.42119 101.67766 16.68926 101.85649 20.15654 104.16753 28.64141 106.09343 33.43584 107.05949 38.74883 108.12981 48.38506 108.7957 52.80986 110.12309 50.87676 114.88567 52.91826 115.28166 46.50908 114.45329 42.85039 113.98088 39.41924 113.52019 35.80547 112.78947 29.32695 111.47954 22.50225 110.29802 16.89238 107.66386 10.24443 104.54179 7.55156 101.95659 7.43437 93.0153 7.14971 71.22246 5.35527 49.32536 20.19561 32.52678 23.86211 28.37627 27.4002 24.59221 33.04326 21.23039 49.75176 11.27629 77.56181 10.54375 94.19365 16.33525 105.16679 20.1563 109.38359 23.60747 116.30058 30.67253 122.12529 36.62224 116.53642 30.64812 135.74687 33.17278 138.01836 33.47099 137.72637 33.23259 139.57646 32.03008 150.7996 24.73454 161.1956 17.01799 172.78691 10.09099 180.71172 5.35527 183.554 7.18156 192.3538 9.65312 197.87529 11.20329 264.3211 29.37968 267.67414 31.17949 273.11897 34.10197 271.47297 44.24004 271.47785 51.8051 271.48274 60.00749 271.4671 68.21404 271.44416 76.41692 271.42219 84.44218 271.4588 92.46989 271.4173 100.49358 271.36164 111.34209 271.89485 113.31438 262.27815 116.25676 237.56963 123.81645 213.1414 132.30681 188.43926 139.81352 167.46562 146.1873 167.80449 147.61724 159.00273 128.64409 156.53252 123.32011 154.24736 117.37077 151.56475 111.9771L143.83623 95.05949"/>
<path transform="matrix(1,0,0,-1,0,152.9725)" d="M62.22149 144.88469C61.68389 144.56572 59.06231 144.44585 61.34404 140.61479 65.5667 133.52483 60.4749 131.7509 56.80693 125.98296 54.82061 122.86064 53.56084 118.95256 54.87871 114.29741 55.43096 112.34807 56.2669 110.58574 57.22393 109.15349 58.2332 107.64421 58.9915 106.75981 60.35332 106.65752 61.04033 106.606 61.64922 106.72722 62.27178 107.02129 66.62675 109.0789 61.08281 113.64665 60.66143 117.26164 59.82109 124.47209 71.13017 126.75627 69.03398 137.91997 68.33086 141.66619 66.28935 147.29839 62.22149 144.88469" fill="#89cff0" fill-rule="evenodd"/>
<path transform="matrix(1,0,0,-1,0,152.9725)" stroke-width="1" stroke-linecap="butt" stroke-miterlimit="10" stroke-linejoin="miter" fill="none" stroke="#89cff0" d="M62.22149 144.88469C61.68389 144.56572 59.06231 144.44585 61.34404 140.61479 65.5667 133.52483 60.4749 131.7509 56.80693 125.98296 54.82061 122.86064 53.56084 118.95256 54.87871 114.29741 55.43096 112.34807 56.2669 110.58574 57.22393 109.15349 58.2332 107.64421 58.9915 106.75981 60.35332 106.65752 61.04033 106.606 61.64922 106.72722 62.27178 107.02129 66.62675 109.0789 61.08281 113.64665 60.66143 117.26164 59.82109 124.47209 71.13017 126.75627 69.03398 137.91997 68.33086 141.66619 66.28935 147.29839 62.22149 144.88469"/>
<path transform="matrix(1,0,0,-1,0,152.9725)" d="M39.65068 56.08549C40.6165 51.51115 44.70879 47.10161 50.08672 49.74638 53.95342 51.64751 55.51299 57.63091 54.49199 62.97197 52.10625 75.45988 36.59746 70.549 39.65068 56.08549" fill="#89cff0" fill-rule="evenodd"/>
<path transform="matrix(1,0,0,-1,0,152.9725)" stroke-width="1" stroke-linecap="butt" stroke-miterlimit="10" stroke-linejoin="miter" fill="none" stroke="#89cff0" d="M39.65068 56.08549C40.6165 51.51115 44.70879 47.10161 50.08672 49.74638 53.95342 51.64751 55.51299 57.63091 54.49199 62.97197 52.10625 75.45988 36.59746 70.549 39.65068 56.08549"/>
<path transform="matrix(1,0,0,-1,0,152.9725)" d="M83.4583 145.04424C83.1541 144.9113 79.84453 145.17729 82.8455 140.11992 86.73759 133.56316 81.63359 131.28093 77.86211 125.76445 75.66972 122.55815 74.84258 118.09416 75.91679 114.01994 76.69267 111.07878 79.12041 105.38029 82.74101 106.9218 89.23515 109.68669 77.57109 115.47527 83.325 122.5258 87.45488 127.58659 91.31377 131.1375 90.23759 137.83916 89.61308 141.72661 87.50322 146.81316 83.4583 145.04424" fill="#89cff0" fill-rule="evenodd"/>
<path transform="matrix(1,0,0,-1,0,152.9725)" stroke-width="1" stroke-linecap="butt" stroke-miterlimit="10" stroke-linejoin="miter" fill="none" stroke="#89cff0" d="M83.4583 145.04424C83.1541 144.9113 79.84453 145.17729 82.8455 140.11992 86.73759 133.56316 81.63359 131.28093 77.86211 125.76445 75.66972 122.55815 74.84258 118.09416 75.91679 114.01994 76.69267 111.07878 79.12041 105.38029 82.74101 106.9218 89.23515 109.68669 77.57109 115.47527 83.325 122.5258 87.45488 127.58659 91.31377 131.1375 90.23759 137.83916 89.61308 141.72661 87.50322 146.81316 83.4583 145.04424"/>
<path transform="matrix(1,0,0,-1,0,152.9725)" d="M98.43047 55.55058C102.66484 69.57268 87.4539 75.49174 84.24004 63.75859 80.2039 49.02605 94.78252 43.47075 98.43047 55.55058" fill="#89cff0" fill-rule="evenodd"/>
<path transform="matrix(1,0,0,-1,0,152.9725)" stroke-width="1" stroke-linecap="butt" stroke-miterlimit="10" stroke-linejoin="miter" fill="none" stroke="#89cff0" d="M98.43047 55.55058C102.66484 69.57268 87.4539 75.49174 84.24004 63.75859 80.2039 49.02605 94.78252 43.47075 98.43047 55.55058"/>
<path transform="matrix(1,0,0,-1,0,152.9725)" d="M211.42559 40.5695C213.80352 50.31267 203.02129 55.56926 200.2288 46.17009 196.94805 35.12895 208.8333 29.9467 211.42559 40.5695" fill="#89cff0" fill-rule="evenodd"/>
<path transform="matrix(1,0,0,-1,0,152.9725)" stroke-width="1" stroke-linecap="butt" stroke-miterlimit="10" stroke-linejoin="miter" fill="none" stroke="#89cff0" d="M211.42559 40.5695C213.80352 50.31267 203.02129 55.56926 200.2288 46.17009 196.94805 35.12895 208.8333 29.9467 211.42559 40.5695"/>
<path transform="matrix(1,0,0,-1,0,152.9725)" d="M243.3499 62.28349C235.88701 60.04314 237.87578 43.62004 246.29668 46.61259 253.07842 49.02238 251.11357 64.61369 243.3499 62.28349" fill="#89cff0" fill-rule="evenodd"/>
<path transform="matrix(1,0,0,-1,0,152.9725)" stroke-width="1" stroke-linecap="butt" stroke-miterlimit="10" stroke-linejoin="miter" fill="none" stroke="#89cff0" d="M243.3499 62.28349C235.88701 60.04314 237.87578 43.62004 246.29668 46.61259 253.07842 49.02238 251.11357 64.61369 243.3499 62.28349"/>
<path transform="matrix(1,0,0,-1,0,152.9725)" d="M79.87773 46.98991C81.12285 50.04118 79.10039 53.08806 76.22783 51.56755 74.23271 50.51189 74.80547 47.55486 71.3084 46.80534 61.86846 44.78178 63.44365 55.4196 58.88701 51.16252 56.70684 49.1259 59.06231 45.41179 60.19219 44.12944 61.41582 42.74138 64.18486 41.48735 66.83281 41.13017 72.78691 40.32732 78.25615 43.0164 79.87773 46.98991" fill="#89cff0" fill-rule="evenodd"/>
<path transform="matrix(1,0,0,-1,0,152.9725)" stroke-width="1" stroke-linecap="butt" stroke-miterlimit="10" stroke-linejoin="miter" fill="none" stroke="#89cff0" d="M79.87773 46.98991C81.12285 50.04118 79.10039 53.08806 76.22783 51.56755 74.23271 50.51189 74.80547 47.55486 71.3084 46.80534 61.86846 44.78178 63.44365 55.4196 58.88701 51.16252 56.70684 49.1259 59.06231 45.41179 60.19219 44.12944 61.41582 42.74138 64.18486 41.48735 66.83281 41.13017 72.78691 40.32732 78.25615 43.0164 79.87773 46.98991"/>
<path transform="matrix(1,0,0,-1,0,152.9725)" d="M234.87383 40.03459C235.77129 42.03349 235.85283 45.75139 233.19609 45.9893 228.84111 46.37932 231.16777 37.21599 223.5413 39.51897 220.84648 40.33269 220.66973 42.6552 218.28789 42.21184 215.7542 41.74016 216.09014 38.58916 217.25566 36.99382 220.58672 32.4351 232.10137 33.85759 234.87383 40.03459" fill="#89cff0" fill-rule="evenodd"/>
<path transform="matrix(1,0,0,-1,0,152.9725)" stroke-width="1" stroke-linecap="butt" stroke-miterlimit="10" stroke-linejoin="miter" fill="none" stroke="#89cff0" d="M234.87383 40.03459C235.77129 42.03349 235.85283 45.75139 233.19609 45.9893 228.84111 46.37932 231.16777 37.21599 223.5413 39.51897 220.84648 40.33269 220.66973 42.6552 218.28789 42.21184 215.7542 41.74016 216.09014 38.58916 217.25566 36.99382 220.58672 32.4351 232.10137 33.85759 234.87383 40.03459"/>
<path transform="matrix(1,0,0,-1,0,152.9725)" d="M67.35332 110.1552 73.80302 110.52568 72.1917 115.59062C63.69219 115.98405 65.9749 115.63518 67.35332 110.1552" fill="#89cff0" fill-rule="evenodd"/>
<path transform="matrix(1,0,0,-1,0,152.9725)" stroke-width="1" stroke-linecap="butt" stroke-miterlimit="10" stroke-linejoin="miter" fill="none" stroke="#89cff0" d="M67.35332 110.1552 73.80302 110.52568 72.1917 115.59062C63.69219 115.98405 65.9749 115.63518 67.35332 110.1552"/>
</svg>
