<svg xmlns="http://www.w3.org/2000/svg" xmlns:xlink="http://www.w3.org/1999/xlink" xmlns:inkscape="http://www.inkscape.org/namespaces/inkscape" version="1.1" width="76.82004" height="121.0172" viewBox="0 0 76.82004 121.0172">
<path transform="matrix(1,0,0,-1,0,121.0172)" d="M11.3126 53.41063C20.20543 49.16832 25.20616 47.94066 36.12755 49.96935 39.79747 50.65111 45.48131 52.42406 49.09752 52.25035 54.40196 51.99547 57.24742 50.36559 62.86339 52.18346 61.66124 41.44164 60.22545 30.76207 59.04088 19.93175 58.49303 14.92662 58.96227 11.37621 52.39952 8.9398 44.27086 5.9221 29.57652 6.16747 21.20274 9.23265 15.28917 11.3972 15.62559 14.29955 14.81041 20.87059L11.3126 53.41063M64.43858 64.37389C64.03014 61.2473 64.07848 56.91991 62.588 55.95238 60.21202 54.41075 56.94933 54.32616 54.14415 54.78343 40.3756 57.02672 32.80699 49.09373 18.94957 53.56712 8.45054 56.95616 10.87852 58.13341 9.98375 64.69615 20.37364 61.98228 26.14732 61.02306 37.2523 61.00719 45.9984 60.99535 56.32237 61.54515 64.43858 64.37389M12.70567 70.84032C15.01573 70.13756 17.70689 69.5139 20.12999 69.15733 30.32774 67.65672 55.63341 67.30431 65.07481 71.52879L67.86974 73.11143C68.32164 69.39085 66.43346 68.69444 63.32359 67.5161 56.37486 64.88182 43.81212 64.18138 36.463 64.17027 30.89439 64.16185 2.64464 65.47765 6.74669 73.52574 7.1212 73.49095 10.88902 71.39244 12.70567 70.84032M38.51134 80.81737C38.21715 81.47594 38.2943 81.67027 38.69395 83.00829 38.9547 83.88133 39.2086 84.5537 39.45323 85.42625 40.52599 89.26256 40.11168 89.20372 41.73424 88.93639L39.8419 80.59203 38.51134 80.81737M10.13072 75.73399C12.68931 76.9807 14.2108 76.10789 17.49058 78.48668 18.16612 78.9763 18.68883 79.31053 19.12266 79.64207L25.78721 85.58495C26.7628 86.34276 27.78917 86.92064 28.96519 87.5139 31.3983 88.74156 34.17467 89.42015 37.14854 89.35667 37.07848 85.82652 32.79771 80.00206 35.73473 78.13805L37.87657 77.4929C43.7274 76.4962 41.78697 78.63951 45.0023 86.78746 47.09508 87.05699 48.65489 85.42711 50.01988 84.15025 56.5753 78.01732 55.04332 77.7191 64.94664 75.33995 58.78233 70.19762 20.12462 69.33141 10.13072 75.73399M48.48351 97.73315C55.21812 96.03941 62.96642 86.39476 64.94542 78.66222 57.63829 79.57945 57.93126 81.33385 54.89391 83.90001 52.48717 85.93394 53.47447 85.62926 51.82555 86.77379L46.18614 90.437 48.48351 97.73315M10.57335 79.1577C15.13731 93.95335 25.10167 100.24182 40.16954 99.71106L38.0421 92.75829C31.13145 92.16978 25.56334 90.68932 21.41051 86.06065 19.65758 84.10643 20.18907 85.27061 17.50059 82.48949 17.00303 81.97472 15.29674 80.78331 14.50645 80.36815 13.31798 79.74425 12.01134 79.43626 10.57335 79.1577M43.48082 99.37354C46.11119 99.18054 45.18443 98.65076 44.40977 96.13304 43.95763 94.66429 43.54942 93.09727 43.00694 91.57774L41.38341 92.20641 43.48082 99.37354M44.81773 102.43835C44.86217 104.99866 47.44688 114.1814 49.09361 115.30652 49.8109 114.43567 49.81432 114.34326 49.05797 112.01917L46.9525 104.64001C46.36412 102.44202 46.57945 102.29517 44.81773 102.43835M4.11851 68.3109C4.23302 68.37889 4.00914 69.41637 6.03184 67.06053 6.48765 66.52965 6.15684 67.03026 6.4564 66.36119 7.23424 59.161 11.64512 14.91039 13.29478 11.5891 13.98472 10.20006 15.63267 8.56175 17.02232 7.70836 18.46275 6.82433 20.75865 5.97191 22.65953 5.43565 32.76427 2.58568 54.82628 2.32726 60.36949 10.80931 62.15636 13.54356 63.86754 32.58299 64.44786 37.53575L67.78917 64.98643C68.09117 66.04735 74.49278 70.44774 70.68932 75.57774 68.95274 77.92015 69.07579 76.25047 67.94713 80.30565 67.42735 82.17259 66.51427 84.34044 65.64561 85.92259L60.98912 92.75719C60.1981 93.83434 60.07506 93.65794 59.036 94.75475 55.87755 98.08826 53.77965 98.45032 49.57335 100.99548 50.15562 105.38672 56.28038 118.00049 49.46861 118.43237 45.4044 118.68994 44.93224 115.42395 43.88683 112.04675 43.07042 109.4093 41.71031 105.43652 41.35924 102.89307 29.00035 104.2063 19.21348 99.33704 13.98326 93.06505 11.26964 89.81114 8.40269 85.12096 7.41856 81.01183 6.19322 75.8961 5.79259 79.06126 3.7086 75.66478 2.43321 73.58653 2.32725 69.96544 4.11851 68.3109" fill="#89cff0" fill-rule="evenodd"/>
<path transform="matrix(1,0,0,-1,0,121.0172)" stroke-width="1" stroke-linecap="butt" stroke-miterlimit="10" stroke-linejoin="miter" fill="none" stroke="#89cff0" d="M11.3126 53.41063C20.20543 49.16832 25.20616 47.94066 36.12755 49.96935 39.79747 50.65111 45.48131 52.42406 49.09752 52.25035 54.40196 51.99547 57.24742 50.36559 62.86339 52.18346 61.66124 41.44164 60.22545 30.76207 59.04088 19.93175 58.49303 14.92662 58.96227 11.37621 52.39952 8.9398 44.27086 5.9221 29.57652 6.16747 21.20274 9.23265 15.28917 11.3972 15.62559 14.29955 14.81041 20.87059L11.3126 53.41063M64.43858 64.37389C64.03014 61.2473 64.07848 56.91991 62.588 55.95238 60.21202 54.41075 56.94933 54.32616 54.14415 54.78343 40.3756 57.02672 32.80699 49.09373 18.94957 53.56712 8.45054 56.95616 10.87852 58.13341 9.98375 64.69615 20.37364 61.98228 26.14732 61.02306 37.2523 61.00719 45.9984 60.99535 56.32237 61.54515 64.43858 64.37389M12.70567 70.84032C15.01573 70.13756 17.70689 69.5139 20.12999 69.15733 30.32774 67.65672 55.63341 67.30431 65.07481 71.52879L67.86974 73.11143C68.32164 69.39085 66.43346 68.69444 63.32359 67.5161 56.37486 64.88182 43.81212 64.18138 36.463 64.17027 30.89439 64.16185 2.64464 65.47765 6.74669 73.52574 7.1212 73.49095 10.88902 71.39244 12.70567 70.84032M38.51134 80.81737C38.21715 81.47594 38.2943 81.67027 38.69395 83.00829 38.9547 83.88133 39.2086 84.5537 39.45323 85.42625 40.52599 89.26256 40.11168 89.20372 41.73424 88.93639L39.8419 80.59203 38.51134 80.81737M10.13072 75.73399C12.68931 76.9807 14.2108 76.10789 17.49058 78.48668 18.16612 78.9763 18.68883 79.31053 19.12266 79.64207L25.78721 85.58495C26.7628 86.34276 27.78917 86.92064 28.96519 87.5139 31.3983 88.74156 34.17467 89.42015 37.14854 89.35667 37.07848 85.82652 32.79771 80.00206 35.73473 78.13805L37.87657 77.4929C43.7274 76.4962 41.78697 78.63951 45.0023 86.78746 47.09508 87.05699 48.65489 85.42711 50.01988 84.15025 56.5753 78.01732 55.04332 77.7191 64.94664 75.33995 58.78233 70.19762 20.12462 69.33141 10.13072 75.73399M48.48351 97.73315C55.21812 96.03941 62.96642 86.39476 64.94542 78.66222 57.63829 79.57945 57.93126 81.33385 54.89391 83.90001 52.48717 85.93394 53.47447 85.62926 51.82555 86.77379L46.18614 90.437 48.48351 97.73315M10.57335 79.1577C15.13731 93.95335 25.10167 100.24182 40.16954 99.71106L38.0421 92.75829C31.13145 92.16978 25.56334 90.68932 21.41051 86.06065 19.65758 84.10643 20.18907 85.27061 17.50059 82.48949 17.00303 81.97472 15.29674 80.78331 14.50645 80.36815 13.31798 79.74425 12.01134 79.43626 10.57335 79.1577M43.48082 99.37354C46.11119 99.18054 45.18443 98.65076 44.40977 96.13304 43.95763 94.66429 43.54942 93.09727 43.00694 91.57774L41.38341 92.20641 43.48082 99.37354M44.81773 102.43835C44.86217 104.99866 47.44688 114.1814 49.09361 115.30652 49.8109 114.43567 49.81432 114.34326 49.05797 112.01917L46.9525 104.64001C46.36412 102.44202 46.57945 102.29517 44.81773 102.43835M4.11851 68.3109C4.23302 68.37889 4.00914 69.41637 6.03184 67.06053 6.48765 66.52965 6.15684 67.03026 6.4564 66.36119 7.23424 59.161 11.64512 14.91039 13.29478 11.5891 13.98472 10.20006 15.63267 8.56175 17.02232 7.70836 18.46275 6.82433 20.75865 5.97191 22.65953 5.43565 32.76427 2.58568 54.82628 2.32726 60.36949 10.80931 62.15636 13.54356 63.86754 32.58299 64.44786 37.53575L67.78917 64.98643C68.09117 66.04735 74.49278 70.44774 70.68932 75.57774 68.95274 77.92015 69.07579 76.25047 67.94713 80.30565 67.42735 82.17259 66.51427 84.34044 65.64561 85.92259L60.98912 92.75719C60.1981 93.83434 60.07506 93.65794 59.036 94.75475 55.87755 98.08826 53.77965 98.45032 49.57335 100.99548 50.15562 105.38672 56.28038 118.00049 49.46861 118.43237 45.4044 118.68994 44.93224 115.42395 43.88683 112.04675 43.07042 109.4093 41.71031 105.43652 41.35924 102.89307 29.00035 104.2063 19.21348 99.33704 13.98326 93.06505 11.26964 89.81114 8.40269 85.12096 7.41856 81.01183 6.19322 75.8961 5.79259 79.06126 3.7086 75.66478 2.43321 73.58653 2.32725 69.96544 4.11851 68.3109"/>
<path transform="matrix(1,0,0,-1,0,121.0172)" d="M31.72667 31.56541C28.08116 26.35789 41.08336 21.45726 43.19347 28.91978 43.90733 31.44347 42.31139 32.1981 40.89757 31.07066 40.57384 30.81224 38.18932 25.46165 34.76744 29.79088 33.12242 31.87206 34.48741 31.85704 31.72667 31.56541" fill="#89cff0" fill-rule="evenodd"/>
<path transform="matrix(1,0,0,-1,0,121.0172)" stroke-width="1" stroke-linecap="butt" stroke-miterlimit="10" stroke-linejoin="miter" fill="none" stroke="#89cff0" d="M31.72667 31.56541C28.08116 26.35789 41.08336 21.45726 43.19347 28.91978 43.90733 31.44347 42.31139 32.1981 40.89757 31.07066 40.57384 30.81224 38.18932 25.46165 34.76744 29.79088 33.12242 31.87206 34.48741 31.85704 31.72667 31.56541"/>
<path transform="matrix(1,0,0,-1,0,121.0172)" d="M6.4564 66.36119C6.15684 67.03026 6.48765 66.52965 6.03184 67.06053 4.00914 69.41637 4.23302 68.37889 4.11851 68.3109 4.89073 67.18504 5.21397 66.99644 6.4564 66.36119" fill="#89cff0" fill-rule="evenodd"/>
<path transform="matrix(1,0,0,-1,0,121.0172)" stroke-width="1" stroke-linecap="butt" stroke-miterlimit="10" stroke-linejoin="miter" fill="none" stroke="#89cff0" d="M6.4564 66.36119C6.15684 67.03026 6.48765 66.52965 6.03184 67.06053 4.00914 69.41637 4.23302 68.37889 4.11851 68.3109 4.89073 67.18504 5.21397 66.99644 6.4564 66.36119"/>
<path transform="matrix(1,0,0,-1,0,121.0172)" d="M25.70714 36.0526V36.0526" fill="#89cff0" fill-rule="evenodd"/>
<path transform="matrix(1,0,0,-1,0,121.0172)" stroke-width="1" stroke-linecap="butt" stroke-miterlimit="10" stroke-linejoin="miter" fill="none" stroke="#89cff0" d="M25.70714 36.0526V36.0526"/>
<path transform="matrix(1,0,0,-1,0,121.0172)" d="M46.40562 37.34325C48.72984 36.97618 48.86143 37.73363 50.09142 39.18382 54.0797 33.09947 55.97789 41.08702 52.34019 44.06993 48.70372 47.05162 44.09117 42.58849 46.40562 37.34325" fill="#89cff0" fill-rule="evenodd"/>
<path transform="matrix(1,0,0,-1,0,121.0172)" stroke-width="1" stroke-linecap="butt" stroke-miterlimit="10" stroke-linejoin="miter" fill="none" stroke="#89cff0" d="M46.40562 37.34325C48.72984 36.97618 48.86143 37.73363 50.09142 39.18382 54.0797 33.09947 55.97789 41.08702 52.34019 44.06993 48.70372 47.05162 44.09117 42.58849 46.40562 37.34325"/>
<path transform="matrix(1,0,0,-1,0,121.0172)" d="M20.52012 37.34325C22.84459 36.97618 22.97618 37.73363 24.2064 39.18382 28.1942 33.09947 30.09288 41.08702 26.45518 44.06993 22.81822 47.05162 18.20567 42.58849 20.52012 37.34325" fill="#89cff0" fill-rule="evenodd"/>
<path transform="matrix(1,0,0,-1,0,121.0172)" stroke-width="1" stroke-linecap="butt" stroke-miterlimit="10" stroke-linejoin="miter" fill="none" stroke="#89cff0" d="M20.52012 37.34325C22.84459 36.97618 22.97618 37.73363 24.2064 39.18382 28.1942 33.09947 30.09288 41.08702 26.45518 44.06993 22.81822 47.05162 18.20567 42.58849 20.52012 37.34325"/>
</svg>
