<svg xmlns="http://www.w3.org/2000/svg" xmlns:xlink="http://www.w3.org/1999/xlink" xmlns:inkscape="http://www.inkscape.org/namespaces/inkscape" version="1.1" width="247.49753" height="235.0267" viewBox="0 0 247.49753 235.0267">
<path transform="matrix(1,0,0,-1,0,235.0267)" d="M45.05754 35.38725C44.40471 41.29118 44.70366 50.31047 47.70586 54.42937 51.79485 60.0396 57.49174 57.72771 59.7625 50.48943 60.60124 47.81523 61.06596 44.24077 61.3958 41.35796 61.94402 36.5656 63.60576 27.81108 65.89445 23.74248 66.76518 22.1945 68.68279 22.77592 69.86296 23.63115 71.00017 24.45537 71.28447 25.66948 73.46147 25.61113 75.93864 25.54448 79.94182 23.92204 81.26335 22.54607 82.93144 20.80876 84.38029 17.41533 82.80876 14.53899 80.52031 10.35027 70.07634 10.58867 64.56926 11.10344 51.26616 12.34673 46.50285 22.3156 45.05754 35.38725M166.25872 23.28423C167.65825 24.23466 170.5413 24.29668 173.58196 26.94914 183.35955 35.4771 174.18926 38.33501 175.26128 41.57585 176.12749 44.1945 177.60686 46.99602 178.84709 49.29802 181.87248 54.91484 188.8361 65.65129 196.59575 65.23076 199.8637 65.05351 201.92473 62.56413 202.69622 59.98808 204.4113 54.2603 201.60881 46.54106 199.60369 41.94658 195.93694 33.54362 187.67192 21.84441 179.2105 17.48479 171.29729 13.40776 165.26604 16.74834 166.25872 23.28423M28.65373 85.27678C25.52336 85.22575 23.95476 87.1331 23.26665 89.79607 22.63884 92.22758 23.00224 96.34355 25.22319 97.23418L25.87834 96.75871C26.01836 95.04887 24.23186 93.40202 25.24895 90.15508 26.17448 87.20061 28.00114 86.43156 28.65373 85.27678M22.85283 101.08977C21.33659 100.12627 19.76079 97.89397 19.11406 95.70171 18.15105 92.43877 18.7625 90.68925 19.31438 87.82793 17.00444 87.8217 16.57756 90.80266 16.54765 92.98723 16.58574 95.42595 17.24004 96.17082 17.80461 98.02812 18.81657 101.35649 14.77495 103.57097 12.679 97.3455 11.94096 95.15349 12.2802 93.75883 12.07414 91.47075 9.83244 91.36809 8.21452 99.14153 10.58342 105.22893 12.09197 109.10564 15.32231 113.28398 18.7885 115.002 24.00066 117.58525 21.78593 115.13835 25.21379 115.04497 27.78825 114.97502 26.81511 114.79424 28.72795 114.03618 29.90691 113.56902 31.18217 113.33549 32.21465 112.92558 40.14531 109.77837 42.03056 95.54839 38.68828 91.0302 36.34355 87.86052 30.78362 87.89311 29.57439 90.85197 27.94084 94.8499 31.84795 94.43803 33.7708 95.25749 36.58159 96.45537 35.7216 99.64641 32.42998 99.74248 30.68071 99.79387 28.65141 98.21123 27.30864 103.20427 26.79265 105.12151 27.12126 105.49944 27.15495 107.18828 27.18645 108.76457 25.78642 109.47807 24.48955 108.60735 23.96184 108.25298 23.06804 106.36736 22.90129 105.63713 22.60368 104.33098 22.82512 102.46599 22.85283 101.08977M175.27495 134.8167C175.76238 132.03618 175.4705 126.48967 175.46 123.22722 175.44719 119.24028 175.55156 115.14848 175.41973 111.17778 169.79717 111.65178 166.58806 110.46147 162.66374 107.7155 160.88884 106.47343 153.66716 101.23186 151.70305 101.54118 150.67436 101.9904 149.9666 103.23698 148.43706 102.24858 147.41143 101.58598 147.07207 100.68608 147.59795 99.47575 148.57048 97.23723 149.23552 94.81877 149.42266 92.22527 150.67375 74.89482 136.30132 62.59258 121.16008 67.27837 109.49516 70.88835 103.58549 83.93852 105.5562 96.62151 106.17949 100.63481 109.81694 105.39018 112.04045 108.41142 113.56889 110.48833 117.12468 112.02251 117.36394 112.42717 117.68169 114.04411 117.16753 114.74065 116.18303 115.356 113.28313 115.2885 109.22392 110.85197 107.54301 109.3936 106.59026 109.74345 104.09892 113.24846 102.92705 114.29839 101.87883 115.23747 98.63774 118.00444 97.22319 118.179 96.64238 117.92107 94.96257 116.71208 95.42863 115.44731 95.66496 114.80547 97.45024 114.01897 98.24394 113.44267 100.25114 111.98564 101.29875 110.90764 103.05046 108.66228 105.89629 105.01347 105.07805 105.99687 103.39897 102.39323 98.1226 91.06682 103.90935 78.72868 103.8903 78.09428 103.82256 75.80058 96.65849 71.14738 92.46892 70.12383 82.40483 67.66545 72.41496 73.89897 67.98686 83.41069 65.82378 88.05669 65.658 94.91655 66.78557 100.16997 67.33745 102.74211 68.19048 104.95915 69.4782 107.04778 72.24138 111.52922 73.47026 110.59148 72.56804 113.48088 71.34062 114.06548 68.86308 113.96648 67.28764 114.18156 66.95366 116.27129 67.12602 175.54778 67.09319 181.06719 67.05046 188.28069 67.48259 188.72515 70.44939 194.41033 71.11101 195.67827 71.57304 197.24138 72.26299 198.38909 73.12529 198.14727 77.47758 195.69072 82.48418 194.12627 97.8051 189.33879 118.93633 188.13079 135.07756 189.48516 139.84038 189.88481 143.62493 190.4511 148.14421 191.11504 157.11956 192.4334 158.25176 193.35527 165.34575 195.75249 166.61248 196.18047 169.41826 197.96489 170.42314 198.00627L173.74272 191.12078C175.09294 187.86602 175.31987 186.50737 175.41008 182.5153 175.67229 170.89238 175.39995 158.34148 175.45879 146.50737 175.46648 144.94829 175.77227 142.71294 174.88787 141.8018 172.59954 139.44512 166.0413 134.0783 163.36907 132.46172 159.00798 129.82317 154.4113 127.69182 148.13848 127.00127 140.38945 126.14812 136.39287 128.32964 129.61724 128.93877 115.74651 130.18608 101.71611 125.46037 91.33244 128.87566 86.17632 130.57158 81.72282 132.85967 77.24431 135.40605 76.27202 135.95915 71.60649 139.57244 70.77824 135.93132 70.13872 133.12139 73.88835 131.62737 75.74846 130.54839 85.14763 125.09392 95.02495 121.06535 108.82146 122.84978 115.39812 123.70012 121.04021 124.62102 127.97173 123.94719 134.71 123.29228 139.16655 121.43633 146.65373 121.90691 156.91265 122.55168 161.92815 125.63274 169.18523 130.21636L173.61833 133.71343C174.22686 134.2603 174.50615 134.5783 175.27495 134.8167M226.82292 160.38127C230.21477 157.9301 233.6591 152.94145 234.6027 148.07598 235.80217 141.88799 232.3947 136.40813 229.50041 133.26567 228.6408 132.33208 227.97747 131.60967 226.73699 130.99297 220.64934 127.96709 224.39153 132.58098 218.07952 135.36186 215.11199 136.66887 213.43059 137.14421 209.53948 136.94438 201.19207 136.5158 195.6137 153.52227 203.0861 153.67705 205.40837 153.72527 205.93865 150.26299 210.58 151.95867 211.62712 152.34099 212.90056 153.1917 213.48479 154.11858 215.15251 156.7642 213.40373 159.83733 209.66936 157.89299 201.70085 153.74419 213.07292 171.63933 223.46501 160.43877 225.34612 158.41118 225.3278 160.00957 226.82292 160.38127M148.52825 226.27739C152.67961 227.24138 157.13677 225.65898 157.5413 222.12187 158.36626 214.90544 145.44219 204.54228 136.9694 203.02678 132.62566 202.2498 128.26946 202.85637 128.04119 207.26128 127.76445 212.60503 135.68169 219.04338 139.65532 221.91692 141.69512 223.39202 146.07573 225.70757 148.52825 226.27739M122.90312 218.16289C110.7708 218.16289 93.96391 217.82659 82.67094 213.87749 80.13481 212.99065 73.48637 210.42693 75.65605 206.78582 77.19951 204.19585 79.75273 207.47698 80.26799 207.86833 81.66069 208.9268 83.78435 209.77007 85.32817 210.21123 93.2791 212.48308 102.8029 213.26274 111.14836 213.57219 113.52446 213.66045 115.96245 213.7006 118.34306 213.72808 120.34172 213.75115 123.63725 214.01103 125.43645 213.8095 125.08464 212.68474 124.10442 211.40679 123.74297 209.97759 122.45122 204.87334 125.10136 200.67998 130.21477 199.16338 138.83245 196.60747 149.78496 202.74614 155.19756 208.53337 156.8018 210.24858 156.37664 210.20354 158.82707 209.53398 160.50493 209.0756 161.89873 208.71196 162.99663 207.71782 163.52947 207.23516 163.81523 206.77568 164.35955 206.19963 166.22808 204.22136 169.25041 206.66338 167.35967 209.44585 165.92217 211.56157 162.82427 212.8621 159.80388 213.71453 159.95366 214.67095 160.63933 215.84539 161.054 216.77141 163.16216 216.70879 172.91838 213.1884 171.9246 207.35918 171.11296 202.59856 163.5352 200.16216 159.64287 198.83489 143.36528 193.28496 110.04704 192.64177 92.63872 196.65178 88.25005 197.66252 84.07304 198.61125 79.83891 200.16667 77.20354 201.13457 76.55461 201.52922 74.50041 202.98516 73.12846 203.95745 71.30595 205.53179 71.06902 207.71611 70.26396 215.127 85.79216 218.72966 91.51787 219.58171 101.84074 221.11797 119.95 221.8687 132.18035 221.33696 132.17009 221.27031 129.17424 218.28093 129.15972 218.27239 128.42327 217.84575 124.10893 218.16289 122.90312 218.16289M154.79741 230.26714H146.72942C145.78826 229.52654 144.09685 229.23198 142.97832 228.69622 134.48967 224.62969 140.26103 225.54839 129.88945 225.80632 123.16496 225.97356 115.03886 226.17339 108.38774 225.56597 94.09538 224.2603 74.17094 224.20952 67.08745 212.15837 65.51372 209.48076 66.24565 205.72905 67.3582 203.05437 69.14397 198.76091 63.21965 194.30828 62.33415 187.08025 61.78935 182.63494 62.17729 170.65007 62.18132 165.46709 62.18474 160.95207 62.51884 146.83672 62.09685 143.42949 58.85307 142.70989 53.90276 143.09246 50.35258 142.50713 43.679 141.40703 37.22392 139.39958 31.92595 135.48882 29.49529 133.69475 27.31572 131.8488 25.35185 129.33318 22.72441 125.96758 22.31938 125.12968 20.25603 121.72148 19.66557 120.74614 17.33098 119.87297 16.40666 119.32878 14.00542 117.91508 11.6342 115.4705 9.86821 113.14238 6.48503 108.68279 4.75957 104.79497 4.9229 98.50664 5.02348 94.64555 5.54558 91.52605 7.96355 88.68437 10.50115 85.70219 12.35466 86.43864 13.94609 85.30962 16.14323 83.75066 17.83098 82.51958 20.91399 82.6198 23.37639 82.70036 23.39006 81.65154 25.61345 80.88445 28.65508 79.83513 33.89885 81.3643 35.69951 82.9821 37.56645 84.65935 35.38005 83.58391 39.19255 85.73112 40.8925 86.6884 41.68486 87.34538 42.59563 88.82768 45.95439 94.29265 45.21819 103.73369 42.22404 109.25334 41.45464 110.67168 40.79301 112.11711 39.83415 113.36577 38.60332 114.96855 37.63164 115.30498 36.58696 116.50713 36.66606 118.26323 39.18547 120.57707 40.46086 121.66936 41.24492 122.34087 42.28117 122.96562 43.09074 123.58672 44.11345 124.37187 44.75786 124.90312 46.00993 125.46465 49.92314 127.21904 57.17876 128.04167 62.12737 127.97026 62.71648 120.62627 61.57719 88.42937 62.42986 84.38103 63.86394 77.57329 72.64397 70.31914 78.72624 67.7487 79.96086 67.22685 81.40642 66.76054 82.85893 66.37077 84.17131 66.01848 86.2979 66.08488 87.34953 65.38713 86.48528 62.62907 83.80229 58.24187 81.68425 56.44133 78.77873 53.97148 73.86308 53.66191 69.36345 54.33916 67.6635 54.59514 67.95293 54.42192 66.97807 55.53532 64.98589 57.81047 63.64848 59.3289 60.64922 60.49797 52.16618 63.804 44.98344 61.18901 41.92326 52.27275 39.47466 45.13762 40.19975 32.93156 42.54655 25.87077 44.5302 19.90166 44.30522 21.31548 46.7841 17.07744 46.83244 16.99443 47.04228 16.62419 47.07487 16.47392 47.18742 15.95805 47.26677 16.34612 47.00517 15.97868 46.75493 15.74126 27.88042 14.37773 32.70439 9.51665 33.82426 8.38811 36.34831 7.7653 38.24504 7.36565 49.18901 5.05937 67.56682 4.75957 79.02995 7.49492 89.04301 9.8842 90.24797 19.33012 84.33354 25.37614 83.17815 26.5573 81.66777 27.47832 79.78593 28.27348 77.33305 29.30986 75.98369 29.07536 73.46318 29.66521 72.97246 30.48808 72.9688 31.85332 72.83366 32.9174 72.64079 34.43571 72.43083 34.82549 73.08965 36.20879 78.17778 36.43999 81.58501 36.78423 85.85844 38.35771 87.51567 38.9677 89.36577 39.90031 90.83733 40.82414 97.55058 45.03862 100.49406 50.63542 103.61736 57.78435 104.32817 59.41228 105.23735 61.51848 105.69231 63.18156 108.01384 63.18156 111.05339 62.68291 113.53374 62.60979 119.25346 62.44145 125.11687 62.25493 130.81572 62.66826 133.40886 62.85612 136.49687 63.46953 138.91204 63.38139L152.34746 41.55266C154.07573 38.84184 161.38787 27.43181 161.4854 24.35283 161.53337 22.84038 161.53679 21.67326 161.73455 20.24773 161.89653 19.08415 162.47978 17.56706 162.33245 16.62029 160.67302 16.33928 140.60234 14.51213 148.07219 8.93889 151.87566 6.10112 163.59917 5.56657 169.46306 5.56255 174.9616 5.55888 192.98857 5.92216 196.88103 9.1685 198.38713 10.42448 198.60198 11.93486 196.99138 13.23222 195.86626 14.13872 194.28118 14.60588 192.57048 15.02605 190.85894 15.44609 188.59941 15.50529 187.17156 15.91069 187.56328 16.62138 191.03386 19.59319 191.51946 20.05217 200.0822 28.1436 212.86052 50.6093 207.51946 61.41521 205.58904 65.32048 203.46843 68.62126 198.21086 69.20146 192.92034 69.78508 188.55156 67.91008 185.16997 65.28508 182.79546 63.4417 179.58269 59.26347 177.51506 55.90068 175.46343 52.56352 172.52532 46.24248 171.96086 45.36418L171.38323 44.71098C169.93035 46.08488 165.76946 53.46831 164.49748 55.59941 163.44646 57.36064 162.17876 59.30974 161.04888 61.05522 160.36663 62.10942 157.91069 65.98076 157.80986 66.82707 158.33977 67.25298 165.40044 69.24602 169.68608 71.87688 173.81902 74.41386 176.08391 76.00066 178.42534 80.20268 179.78423 82.6414 180.21709 83.43938 180.3897 86.72551 180.82085 94.93242 179.971 103.95451 180.65386 112.02336 185.89165 111.8311 188.57793 109.17314 199.23113 109.71562 210.14153 110.27092 216.79167 115.82512 221.81755 124.13567 222.9882 126.07158 222.87419 125.56584 225.35759 125.89409 234.43889 127.09477 242.73796 140.17192 238.12248 152.51348 234.89568 161.14202 222.00066 171.09539 212.61394 168.40508 207.44548 166.92363 202.88933 163.75457 201.67839 158.1552 195.65825 156.29228 194.13567 152.25688 195.2736 146.11736 197.64153 133.33867 209.25457 135.0761 203.2028 129.32427 197.38054 123.79021 181.0822 129.16448 180.59917 130.00432 179.95745 131.11968 181.05559 178.97686 180.26873 185.83354 179.78057 190.08489 178.78557 192.64775 176.78227 196.28496 173.28752 202.63054 176.42229 201.88213 176.69536 207.45818 177.1021 215.76067 168.44646 219.10857 162.15666 221.28765 161.12065 224.2166 161.85369 226.50298 157.58379 228.93999 156.69805 229.44573 155.61089 229.73345 154.79741 230.26714" fill="#89cff0" fill-rule="evenodd"/>
<path transform="matrix(1,0,0,-1,0,235.0267)" stroke-width="1" stroke-linecap="butt" stroke-miterlimit="10" stroke-linejoin="miter" fill="none" stroke="#89cff0" d="M45.05754 35.38725C44.40471 41.29118 44.70366 50.31047 47.70586 54.42937 51.79485 60.0396 57.49174 57.72771 59.7625 50.48943 60.60124 47.81523 61.06596 44.24077 61.3958 41.35796 61.94402 36.5656 63.60576 27.81108 65.89445 23.74248 66.76518 22.1945 68.68279 22.77592 69.86296 23.63115 71.00017 24.45537 71.28447 25.66948 73.46147 25.61113 75.93864 25.54448 79.94182 23.92204 81.26335 22.54607 82.93144 20.80876 84.38029 17.41533 82.80876 14.53899 80.52031 10.35027 70.07634 10.58867 64.56926 11.10344 51.26616 12.34673 46.50285 22.3156 45.05754 35.38725M166.25872 23.28423C167.65825 24.23466 170.5413 24.29668 173.58196 26.94914 183.35955 35.4771 174.18926 38.33501 175.26128 41.57585 176.12749 44.1945 177.60686 46.99602 178.84709 49.29802 181.87248 54.91484 188.8361 65.65129 196.59575 65.23076 199.8637 65.05351 201.92473 62.56413 202.69622 59.98808 204.4113 54.2603 201.60881 46.54106 199.60369 41.94658 195.93694 33.54362 187.67192 21.84441 179.2105 17.48479 171.29729 13.40776 165.26604 16.74834 166.25872 23.28423M28.65373 85.27678C25.52336 85.22575 23.95476 87.1331 23.26665 89.79607 22.63884 92.22758 23.00224 96.34355 25.22319 97.23418L25.87834 96.75871C26.01836 95.04887 24.23186 93.40202 25.24895 90.15508 26.17448 87.20061 28.00114 86.43156 28.65373 85.27678M22.85283 101.08977C21.33659 100.12627 19.76079 97.89397 19.11406 95.70171 18.15105 92.43877 18.7625 90.68925 19.31438 87.82793 17.00444 87.8217 16.57756 90.80266 16.54765 92.98723 16.58574 95.42595 17.24004 96.17082 17.80461 98.02812 18.81657 101.35649 14.77495 103.57097 12.679 97.3455 11.94096 95.15349 12.2802 93.75883 12.07414 91.47075 9.83244 91.36809 8.21452 99.14153 10.58342 105.22893 12.09197 109.10564 15.32231 113.28398 18.7885 115.002 24.00066 117.58525 21.78593 115.13835 25.21379 115.04497 27.78825 114.97502 26.81511 114.79424 28.72795 114.03618 29.90691 113.56902 31.18217 113.33549 32.21465 112.92558 40.14531 109.77837 42.03056 95.54839 38.68828 91.0302 36.34355 87.86052 30.78362 87.89311 29.57439 90.85197 27.94084 94.8499 31.84795 94.43803 33.7708 95.25749 36.58159 96.45537 35.7216 99.64641 32.42998 99.74248 30.68071 99.79387 28.65141 98.21123 27.30864 103.20427 26.79265 105.12151 27.12126 105.49944 27.15495 107.18828 27.18645 108.76457 25.78642 109.47807 24.48955 108.60735 23.96184 108.25298 23.06804 106.36736 22.90129 105.63713 22.60368 104.33098 22.82512 102.46599 22.85283 101.08977M175.27495 134.8167C175.76238 132.03618 175.4705 126.48967 175.46 123.22722 175.44719 119.24028 175.55156 115.14848 175.41973 111.17778 169.79717 111.65178 166.58806 110.46147 162.66374 107.7155 160.88884 106.47343 153.66716 101.23186 151.70305 101.54118 150.67436 101.9904 149.9666 103.23698 148.43706 102.24858 147.41143 101.58598 147.07207 100.68608 147.59795 99.47575 148.57048 97.23723 149.23552 94.81877 149.42266 92.22527 150.67375 74.89482 136.30132 62.59258 121.16008 67.27837 109.49516 70.88835 103.58549 83.93852 105.5562 96.62151 106.17949 100.63481 109.81694 105.39018 112.04045 108.41142 113.56889 110.48833 117.12468 112.02251 117.36394 112.42717 117.68169 114.04411 117.16753 114.74065 116.18303 115.356 113.28313 115.2885 109.22392 110.85197 107.54301 109.3936 106.59026 109.74345 104.09892 113.24846 102.92705 114.29839 101.87883 115.23747 98.63774 118.00444 97.22319 118.179 96.64238 117.92107 94.96257 116.71208 95.42863 115.44731 95.66496 114.80547 97.45024 114.01897 98.24394 113.44267 100.25114 111.98564 101.29875 110.90764 103.05046 108.66228 105.89629 105.01347 105.07805 105.99687 103.39897 102.39323 98.1226 91.06682 103.90935 78.72868 103.8903 78.09428 103.82256 75.80058 96.65849 71.14738 92.46892 70.12383 82.40483 67.66545 72.41496 73.89897 67.98686 83.41069 65.82378 88.05669 65.658 94.91655 66.78557 100.16997 67.33745 102.74211 68.19048 104.95915 69.4782 107.04778 72.24138 111.52922 73.47026 110.59148 72.56804 113.48088 71.34062 114.06548 68.86308 113.96648 67.28764 114.18156 66.95366 116.27129 67.12602 175.54778 67.09319 181.06719 67.05046 188.28069 67.48259 188.72515 70.44939 194.41033 71.11101 195.67827 71.57304 197.24138 72.26299 198.38909 73.12529 198.14727 77.47758 195.69072 82.48418 194.12627 97.8051 189.33879 118.93633 188.13079 135.07756 189.48516 139.84038 189.88481 143.62493 190.4511 148.14421 191.11504 157.11956 192.4334 158.25176 193.35527 165.34575 195.75249 166.61248 196.18047 169.41826 197.96489 170.42314 198.00627L173.74272 191.12078C175.09294 187.86602 175.31987 186.50737 175.41008 182.5153 175.67229 170.89238 175.39995 158.34148 175.45879 146.50737 175.46648 144.94829 175.77227 142.71294 174.88787 141.8018 172.59954 139.44512 166.0413 134.0783 163.36907 132.46172 159.00798 129.82317 154.4113 127.69182 148.13848 127.00127 140.38945 126.14812 136.39287 128.32964 129.61724 128.93877 115.74651 130.18608 101.71611 125.46037 91.33244 128.87566 86.17632 130.57158 81.72282 132.85967 77.24431 135.40605 76.27202 135.95915 71.60649 139.57244 70.77824 135.93132 70.13872 133.12139 73.88835 131.62737 75.74846 130.54839 85.14763 125.09392 95.02495 121.06535 108.82146 122.84978 115.39812 123.70012 121.04021 124.62102 127.97173 123.94719 134.71 123.29228 139.16655 121.43633 146.65373 121.90691 156.91265 122.55168 161.92815 125.63274 169.18523 130.21636L173.61833 133.71343C174.22686 134.2603 174.50615 134.5783 175.27495 134.8167M226.82292 160.38127C230.21477 157.9301 233.6591 152.94145 234.6027 148.07598 235.80217 141.88799 232.3947 136.40813 229.50041 133.26567 228.6408 132.33208 227.97747 131.60967 226.73699 130.99297 220.64934 127.96709 224.39153 132.58098 218.07952 135.36186 215.11199 136.66887 213.43059 137.14421 209.53948 136.94438 201.19207 136.5158 195.6137 153.52227 203.0861 153.67705 205.40837 153.72527 205.93865 150.26299 210.58 151.95867 211.62712 152.34099 212.90056 153.1917 213.48479 154.11858 215.15251 156.7642 213.40373 159.83733 209.66936 157.89299 201.70085 153.74419 213.07292 171.63933 223.46501 160.43877 225.34612 158.41118 225.3278 160.00957 226.82292 160.38127M148.52825 226.27739C152.67961 227.24138 157.13677 225.65898 157.5413 222.12187 158.36626 214.90544 145.44219 204.54228 136.9694 203.02678 132.62566 202.2498 128.26946 202.85637 128.04119 207.26128 127.76445 212.60503 135.68169 219.04338 139.65532 221.91692 141.69512 223.39202 146.07573 225.70757 148.52825 226.27739M122.90312 218.16289C110.7708 218.16289 93.96391 217.82659 82.67094 213.87749 80.13481 212.99065 73.48637 210.42693 75.65605 206.78582 77.19951 204.19585 79.75273 207.47698 80.26799 207.86833 81.66069 208.9268 83.78435 209.77007 85.32817 210.21123 93.2791 212.48308 102.8029 213.26274 111.14836 213.57219 113.52446 213.66045 115.96245 213.7006 118.34306 213.72808 120.34172 213.75115 123.63725 214.01103 125.43645 213.8095 125.08464 212.68474 124.10442 211.40679 123.74297 209.97759 122.45122 204.87334 125.10136 200.67998 130.21477 199.16338 138.83245 196.60747 149.78496 202.74614 155.19756 208.53337 156.8018 210.24858 156.37664 210.20354 158.82707 209.53398 160.50493 209.0756 161.89873 208.71196 162.99663 207.71782 163.52947 207.23516 163.81523 206.77568 164.35955 206.19963 166.22808 204.22136 169.25041 206.66338 167.35967 209.44585 165.92217 211.56157 162.82427 212.8621 159.80388 213.71453 159.95366 214.67095 160.63933 215.84539 161.054 216.77141 163.16216 216.70879 172.91838 213.1884 171.9246 207.35918 171.11296 202.59856 163.5352 200.16216 159.64287 198.83489 143.36528 193.28496 110.04704 192.64177 92.63872 196.65178 88.25005 197.66252 84.07304 198.61125 79.83891 200.16667 77.20354 201.13457 76.55461 201.52922 74.50041 202.98516 73.12846 203.95745 71.30595 205.53179 71.06902 207.71611 70.26396 215.127 85.79216 218.72966 91.51787 219.58171 101.84074 221.11797 119.95 221.8687 132.18035 221.33696 132.17009 221.27031 129.17424 218.28093 129.15972 218.27239 128.42327 217.84575 124.10893 218.16289 122.90312 218.16289M154.79741 230.26714H146.72942C145.78826 229.52654 144.09685 229.23198 142.97832 228.69622 134.48967 224.62969 140.26103 225.54839 129.88945 225.80632 123.16496 225.97356 115.03886 226.17339 108.38774 225.56597 94.09538 224.2603 74.17094 224.20952 67.08745 212.15837 65.51372 209.48076 66.24565 205.72905 67.3582 203.05437 69.14397 198.76091 63.21965 194.30828 62.33415 187.08025 61.78935 182.63494 62.17729 170.65007 62.18132 165.46709 62.18474 160.95207 62.51884 146.83672 62.09685 143.42949 58.85307 142.70989 53.90276 143.09246 50.35258 142.50713 43.679 141.40703 37.22392 139.39958 31.92595 135.48882 29.49529 133.69475 27.31572 131.8488 25.35185 129.33318 22.72441 125.96758 22.31938 125.12968 20.25603 121.72148 19.66557 120.74614 17.33098 119.87297 16.40666 119.32878 14.00542 117.91508 11.6342 115.4705 9.86821 113.14238 6.48503 108.68279 4.75957 104.79497 4.9229 98.50664 5.02348 94.64555 5.54558 91.52605 7.96355 88.68437 10.50115 85.70219 12.35466 86.43864 13.94609 85.30962 16.14323 83.75066 17.83098 82.51958 20.91399 82.6198 23.37639 82.70036 23.39006 81.65154 25.61345 80.88445 28.65508 79.83513 33.89885 81.3643 35.69951 82.9821 37.56645 84.65935 35.38005 83.58391 39.19255 85.73112 40.8925 86.6884 41.68486 87.34538 42.59563 88.82768 45.95439 94.29265 45.21819 103.73369 42.22404 109.25334 41.45464 110.67168 40.79301 112.11711 39.83415 113.36577 38.60332 114.96855 37.63164 115.30498 36.58696 116.50713 36.66606 118.26323 39.18547 120.57707 40.46086 121.66936 41.24492 122.34087 42.28117 122.96562 43.09074 123.58672 44.11345 124.37187 44.75786 124.90312 46.00993 125.46465 49.92314 127.21904 57.17876 128.04167 62.12737 127.97026 62.71648 120.62627 61.57719 88.42937 62.42986 84.38103 63.86394 77.57329 72.64397 70.31914 78.72624 67.7487 79.96086 67.22685 81.40642 66.76054 82.85893 66.37077 84.17131 66.01848 86.2979 66.08488 87.34953 65.38713 86.48528 62.62907 83.80229 58.24187 81.68425 56.44133 78.77873 53.97148 73.86308 53.66191 69.36345 54.33916 67.6635 54.59514 67.95293 54.42192 66.97807 55.53532 64.98589 57.81047 63.64848 59.3289 60.64922 60.49797 52.16618 63.804 44.98344 61.18901 41.92326 52.27275 39.47466 45.13762 40.19975 32.93156 42.54655 25.87077 44.5302 19.90166 44.30522 21.31548 46.7841 17.07744 46.83244 16.99443 47.04228 16.62419 47.07487 16.47392 47.18742 15.95805 47.26677 16.34612 47.00517 15.97868 46.75493 15.74126 27.88042 14.37773 32.70439 9.51665 33.82426 8.38811 36.34831 7.7653 38.24504 7.36565 49.18901 5.05937 67.56682 4.75957 79.02995 7.49492 89.04301 9.8842 90.24797 19.33012 84.33354 25.37614 83.17815 26.5573 81.66777 27.47832 79.78593 28.27348 77.33305 29.30986 75.98369 29.07536 73.46318 29.66521 72.97246 30.48808 72.9688 31.85332 72.83366 32.9174 72.64079 34.43571 72.43083 34.82549 73.08965 36.20879 78.17778 36.43999 81.58501 36.78423 85.85844 38.35771 87.51567 38.9677 89.36577 39.90031 90.83733 40.82414 97.55058 45.03862 100.49406 50.63542 103.61736 57.78435 104.32817 59.41228 105.23735 61.51848 105.69231 63.18156 108.01384 63.18156 111.05339 62.68291 113.53374 62.60979 119.25346 62.44145 125.11687 62.25493 130.81572 62.66826 133.40886 62.85612 136.49687 63.46953 138.91204 63.38139L152.34746 41.55266C154.07573 38.84184 161.38787 27.43181 161.4854 24.35283 161.53337 22.84038 161.53679 21.67326 161.73455 20.24773 161.89653 19.08415 162.47978 17.56706 162.33245 16.62029 160.67302 16.33928 140.60234 14.51213 148.07219 8.93889 151.87566 6.10112 163.59917 5.56657 169.46306 5.56255 174.9616 5.55888 192.98857 5.92216 196.88103 9.1685 198.38713 10.42448 198.60198 11.93486 196.99138 13.23222 195.86626 14.13872 194.28118 14.60588 192.57048 15.02605 190.85894 15.44609 188.59941 15.50529 187.17156 15.91069 187.56328 16.62138 191.03386 19.59319 191.51946 20.05217 200.0822 28.1436 212.86052 50.6093 207.51946 61.41521 205.58904 65.32048 203.46843 68.62126 198.21086 69.20146 192.92034 69.78508 188.55156 67.91008 185.16997 65.28508 182.79546 63.4417 179.58269 59.26347 177.51506 55.90068 175.46343 52.56352 172.52532 46.24248 171.96086 45.36418L171.38323 44.71098C169.93035 46.08488 165.76946 53.46831 164.49748 55.59941 163.44646 57.36064 162.17876 59.30974 161.04888 61.05522 160.36663 62.10942 157.91069 65.98076 157.80986 66.82707 158.33977 67.25298 165.40044 69.24602 169.68608 71.87688 173.81902 74.41386 176.08391 76.00066 178.42534 80.20268 179.78423 82.6414 180.21709 83.43938 180.3897 86.72551 180.82085 94.93242 179.971 103.95451 180.65386 112.02336 185.89165 111.8311 188.57793 109.17314 199.23113 109.71562 210.14153 110.27092 216.79167 115.82512 221.81755 124.13567 222.9882 126.07158 222.87419 125.56584 225.35759 125.89409 234.43889 127.09477 242.73796 140.17192 238.12248 152.51348 234.89568 161.14202 222.00066 171.09539 212.61394 168.40508 207.44548 166.92363 202.88933 163.75457 201.67839 158.1552 195.65825 156.29228 194.13567 152.25688 195.2736 146.11736 197.64153 133.33867 209.25457 135.0761 203.2028 129.32427 197.38054 123.79021 181.0822 129.16448 180.59917 130.00432 179.95745 131.11968 181.05559 178.97686 180.26873 185.83354 179.78057 190.08489 178.78557 192.64775 176.78227 196.28496 173.28752 202.63054 176.42229 201.88213 176.69536 207.45818 177.1021 215.76067 168.44646 219.10857 162.15666 221.28765 161.12065 224.2166 161.85369 226.50298 157.58379 228.93999 156.69805 229.44573 155.61089 229.73345 154.79741 230.26714"/>
<path transform="matrix(1,0,0,-1,0,235.0267)" d="M73.18535 182.74712C71.29753 181.653 71.94072 179.15593 73.55254 178.25847 76.13713 176.81914 87.86516 174.07292 91.01506 173.39629 99.5153 171.57048 108.33781 170.74724 117.62297 170.52935 132.80144 170.17327 155.62957 171.90923 169.09307 178.08757 171.03484 178.9788 170.83843 182.02519 169.13396 182.66497 167.32512 183.3444 164.95647 181.71392 163.38384 181.13567 146.48027 174.92241 114.54033 174.39434 96.83305 177.34746 90.27666 178.44109 85.1209 179.4329 78.91191 181.49419 77.46574 181.97417 74.48589 183.5009 73.18535 182.74712" fill="#89cff0" fill-rule="evenodd"/>
<path transform="matrix(1,0,0,-1,0,235.0267)" stroke-width="1" stroke-linecap="butt" stroke-miterlimit="10" stroke-linejoin="miter" fill="none" stroke="#89cff0" d="M73.18535 182.74712C71.29753 181.653 71.94072 179.15593 73.55254 178.25847 76.13713 176.81914 87.86516 174.07292 91.01506 173.39629 99.5153 171.57048 108.33781 170.74724 117.62297 170.52935 132.80144 170.17327 155.62957 171.90923 169.09307 178.08757 171.03484 178.9788 170.83843 182.02519 169.13396 182.66497 167.32512 183.3444 164.95647 181.71392 163.38384 181.13567 146.48027 174.92241 114.54033 174.39434 96.83305 177.34746 90.27666 178.44109 85.1209 179.4329 78.91191 181.49419 77.46574 181.97417 74.48589 183.5009 73.18535 182.74712"/>
<path transform="matrix(1,0,0,-1,0,235.0267)" d="M143.23088 208.90727C145.6021 213.08074 137.69426 215.68889 133.63872 212.57219 128.28472 208.45806 132.04338 203.42498 136.67156 204.48748 139.299 205.09075 142.25896 207.19658 143.23088 208.90727" fill="#89cff0" fill-rule="evenodd"/>
<path transform="matrix(1,0,0,-1,0,235.0267)" stroke-width="1" stroke-linecap="butt" stroke-miterlimit="10" stroke-linejoin="miter" fill="none" stroke="#89cff0" d="M143.23088 208.90727C145.6021 213.08074 137.69426 215.68889 133.63872 212.57219 128.28472 208.45806 132.04338 203.42498 136.67156 204.48748 139.299 205.09075 142.25896 207.19658 143.23088 208.90727"/>
<path transform="matrix(1,0,0,-1,0,235.0267)" d="M153.924 218.98723C155.00176 221.28337 152.4384 223.24529 150.2614 223.28496 147.82439 223.32915 145.28874 222.38603 144.424 220.73027 141.96306 216.0197 151.86492 214.59954 153.924 218.98723" fill="#89cff0" fill-rule="evenodd"/>
<path transform="matrix(1,0,0,-1,0,235.0267)" stroke-width="1" stroke-linecap="butt" stroke-miterlimit="10" stroke-linejoin="miter" fill="none" stroke="#89cff0" d="M153.924 218.98723C155.00176 221.28337 152.4384 223.24529 150.2614 223.28496 147.82439 223.32915 145.28874 222.38603 144.424 220.73027 141.96306 216.0197 151.86492 214.59954 153.924 218.98723"/>
<path transform="matrix(1,0,0,-1,0,235.0267)" d="M80.41118 89.14714C80.70146 87.97527 82.97404 88.21977 82.55278 89.80901 82.23503 91.00725 79.98711 90.85735 80.41118 89.14714" fill="#89cff0" fill-rule="evenodd"/>
<path transform="matrix(1,0,0,-1,0,235.0267)" stroke-width="1" stroke-linecap="butt" stroke-miterlimit="10" stroke-linejoin="miter" fill="none" stroke="#89cff0" d="M80.41118 89.14714C80.70146 87.97527 82.97404 88.21977 82.55278 89.80901 82.23503 91.00725 79.98711 90.85735 80.41118 89.14714"/>
<path transform="matrix(1,0,0,-1,0,235.0267)" d="M85.39763 92.65703C86.4008 92.28679 86.55327 92.54875 86.85966 93.44902 86.45415 94.15605 86.37505 94.46416 85.40874 94.0446 84.96623 93.25175 84.95805 93.44902 85.39763 92.65703" fill="#89cff0" fill-rule="evenodd"/>
<path transform="matrix(1,0,0,-1,0,235.0267)" stroke-width="1" stroke-linecap="butt" stroke-miterlimit="10" stroke-linejoin="miter" fill="none" stroke="#89cff0" d="M85.39763 92.65703C86.4008 92.28679 86.55327 92.54875 86.85966 93.44902 86.45415 94.15605 86.37505 94.46416 85.40874 94.0446 84.96623 93.25175 84.95805 93.44902 85.39763 92.65703"/>
</svg>
