<svg xmlns="http://www.w3.org/2000/svg" xmlns:xlink="http://www.w3.org/1999/xlink" xmlns:inkscape="http://www.inkscape.org/namespaces/inkscape" version="1.1" width="79.173099" height="103.7121" viewBox="0 0 79.173099 103.7121">
<path transform="matrix(1,0,0,-1,0,103.7121)" d="M10.36987 35.83856C18.427 33.60968 16.53198 33.52716 18.8186 20.35773 19.26025 17.81512 19.12012 15.28973 21.27612 14.53754 22.96045 15.9433 21.96582 18.67279 21.30957 22.72406 20.86816 25.44879 20.10229 28.61932 19.88477 31.32782 23.44995 29.30096 26.11743 30.40997 29.69214 30.63788 31.78589 30.77142 36.24927 26.48505 44.10913 28.89337 45.47046 29.31036 47.92432 30.74042 48.21533 30.77814 49.00806 30.88019 54.09253 29.32257 58.57617 31.3797 58.17944 28.71222 57.8584 25.82855 57.51562 23.10309 57.34204 21.72174 57.17065 20.34296 56.9624 18.96893 56.76538 17.66962 56.4231 16.56329 56.75244 15.37921L56.96973 14.87372C59.67505 13.96014 59.44116 17.33661 59.83081 19.80914 60.19287 22.11041 60.52808 24.44391 60.87305 26.73932 61.15649 28.62701 61.00562 31.87091 62.26147 33.28827 64.12793 35.3941 65.10596 34.87201 68.66577 35.36798L69.17651 35.78192 68.93481 34.84283C67.54565 29.85883 65.11792 14.16534 62.62964 11.51361 53.76489 2.0658 21.97925 4.01678 16.27979 11.58282 14.74585 13.6192 10.60278 31.41193 10.0415 35.47211L9.84619 36.14813 10.36987 35.83856M5.67261 49.2995C6.39697 48.48273 6.41406 48.18597 6.90405 47.57404L9.82275 44.67133C22.41895 35.46503 45.37305 35.28265 59.66333 39.83539 66.01587 41.85907 69.27148 44.3465 73.23779 48.90424 74.59814 41.81879 71.30225 38.43427 64.81519 37.91241 61.32739 37.63177 62.32227 37.39569 60.18604 35.74249 57.52979 33.68622 53.10425 32.74969 49.39722 33.88068 46.23853 34.84479 47.05933 33.69952 44.89624 32.55609 43.56885 31.85382 41.04272 31.43097 39.42969 31.35272 30.91187 30.94 33.4187 35.49933 29.05591 33.90167 25.30273 32.52704 21.06836 33.65729 18.46094 35.56818 15.99878 37.37213 17.84668 37.41437 13.97192 37.97223 7.32935 38.92889 3.51123 45.24591 5.67261 49.2995M31.03906 61.216C31.22778 63.16144 30.98511 63.29913 29.06494 63.96893 19.09033 67.44855 17.71143 75.88593 28.38257 79.21039 29.12476 67.89301 42.77905 65.61542 48.85376 71.00214 50.69751 72.63678 51.6626 75.43378 52.52612 78.51215 53.29395 78.27094 54.78345 77.6734 55.51978 77.27997 57.01904 76.47943 56.78613 76.4007 57.86914 75.31354 60.23193 72.94232 59.35498 71.68378 60.82959 69.86505 60.82983 69.86481 68.54492 68.1153 71.26733 61.53864 73.58765 55.93414 71.55664 51.18561 68.34863 48.25372 65.24707 45.41937 61.66724 43.38434 56.03247 42.09442 43.70923 39.27277 19.95483 38.7934 10.50757 48.26642 2.87646 55.91852 9.18018 67.04913 17.9812 70.89545 19.00098 66.91644 20.59351 65.60492 22.94116 63.58344 24.56177 62.18829 28.73218 59.59113 31.03906 61.216M43.04883 88.02948C47.51196 87.57709 49.92944 82.29156 49.10791 77.60223 47.98242 71.18085 39.8501 70.26031 35.93896 72.64557 33.36646 74.2149 31.45532 76.039 31.50464 80.07684 31.56885 85.35419 35.1311 87.23663 39.81128 88.02545 39.75854 87.1922 39.79395 86.41803 39.55811 85.69904 39.53125 85.61713 37.09766 81.69659 42.07788 82.43353 44.78564 82.83466 44.51855 83.20721 44.29126 85.47064L42.43213 86.263 43.04883 88.02948M44.12793 91.33185C46.77344 95.96283 49.01514 94.57391 51.36597 96.76361 51.40381 101.7121 42.8728 97.59418 41.14624 91.39337 35.34619 91.05096 29.75806 89.3609 28.70703 82.54816 26.66943 82.2851 23.76929 80.9151 22.26709 79.8476 21.02148 78.96222 21.91846 79.63531 20.93286 78.61334 18.25269 75.83453 19.24316 75.76678 18.31055 74.7027 17.67163 73.97357 16.10425 73.73444 15.13599 73.18817 9.08887 69.77753 4.45142 64.19098 3.99048 56.86627 3.88208 55.14703 4.46875 53.80463 4.40552 52.82404 4.33862 51.78363 2.15649 50.10504 2.09863 46.32892 2 39.90009 6.08765 40.66595 7.39429 33.93854 8.16235 29.98651 11.73535 14.06573 12.60596 11.94586 13.68433 9.3219 14.79053 8.66956 17.03345 7.21429 22.95972 3.36969 31.70532 2.30298 38.69189 2.17395 48.12622 2 56.60156 3.30365 64.08545 8.58997 68.25977 11.53827 70.27515 31.23102 72.14819 36.48029 72.86621 38.49347 76.80615 39.29059 77.02295 45.23676 77.1731 49.36066 75.14746 50.33344 74.80615 52.24384 74.49536 53.98053 75.74902 56.60211 74.91943 59.99335 74.31689 62.45697 73.24536 64.35944 72.09253 65.91022 71.22681 67.07465 71.12622 67.70953 70.06152 68.62177 69.198 69.36163 68.573 69.58929 67.46313 70.41803 63.41431 73.44122 63.98413 70.70245 62.40259 74.34747 60.91333 77.78058 56.87427 81.22211 52.12109 81.83063 51.03906 89.42413 45.52295 90.34479 44.12793 91.33185" fill="#89cff0" fill-rule="evenodd"/>
<path transform="matrix(1,0,0,-1,0,103.7121)" stroke-width="1" stroke-linecap="butt" stroke-miterlimit="10" stroke-linejoin="miter" fill="none" stroke="#89cff0" d="M10.36987 35.83856C18.427 33.60968 16.53198 33.52716 18.8186 20.35773 19.26025 17.81512 19.12012 15.28973 21.27612 14.53754 22.96045 15.9433 21.96582 18.67279 21.30957 22.72406 20.86816 25.44879 20.10229 28.61932 19.88477 31.32782 23.44995 29.30096 26.11743 30.40997 29.69214 30.63788 31.78589 30.77142 36.24927 26.48505 44.10913 28.89337 45.47046 29.31036 47.92432 30.74042 48.21533 30.77814 49.00806 30.88019 54.09253 29.32257 58.57617 31.3797 58.17944 28.71222 57.8584 25.82855 57.51562 23.10309 57.34204 21.72174 57.17065 20.34296 56.9624 18.96893 56.76538 17.66962 56.4231 16.56329 56.75244 15.37921L56.96973 14.87372C59.67505 13.96014 59.44116 17.33661 59.83081 19.80914 60.19287 22.11041 60.52808 24.44391 60.87305 26.73932 61.15649 28.62701 61.00562 31.87091 62.26147 33.28827 64.12793 35.3941 65.10596 34.87201 68.66577 35.36798L69.17651 35.78192 68.93481 34.84283C67.54565 29.85883 65.11792 14.16534 62.62964 11.51361 53.76489 2.0658 21.97925 4.01678 16.27979 11.58282 14.74585 13.6192 10.60278 31.41193 10.0415 35.47211L9.84619 36.14813 10.36987 35.83856M5.67261 49.2995C6.39697 48.48273 6.41406 48.18597 6.90405 47.57404L9.82275 44.67133C22.41895 35.46503 45.37305 35.28265 59.66333 39.83539 66.01587 41.85907 69.27148 44.3465 73.23779 48.90424 74.59814 41.81879 71.30225 38.43427 64.81519 37.91241 61.32739 37.63177 62.32227 37.39569 60.18604 35.74249 57.52979 33.68622 53.10425 32.74969 49.39722 33.88068 46.23853 34.84479 47.05933 33.69952 44.89624 32.55609 43.56885 31.85382 41.04272 31.43097 39.42969 31.35272 30.91187 30.94 33.4187 35.49933 29.05591 33.90167 25.30273 32.52704 21.06836 33.65729 18.46094 35.56818 15.99878 37.37213 17.84668 37.41437 13.97192 37.97223 7.32935 38.92889 3.51123 45.24591 5.67261 49.2995M31.03906 61.216C31.22778 63.16144 30.98511 63.29913 29.06494 63.96893 19.09033 67.44855 17.71143 75.88593 28.38257 79.21039 29.12476 67.89301 42.77905 65.61542 48.85376 71.00214 50.69751 72.63678 51.6626 75.43378 52.52612 78.51215 53.29395 78.27094 54.78345 77.6734 55.51978 77.27997 57.01904 76.47943 56.78613 76.4007 57.86914 75.31354 60.23193 72.94232 59.35498 71.68378 60.82959 69.86505 60.82983 69.86481 68.54492 68.1153 71.26733 61.53864 73.58765 55.93414 71.55664 51.18561 68.34863 48.25372 65.24707 45.41937 61.66724 43.38434 56.03247 42.09442 43.70923 39.27277 19.95483 38.7934 10.50757 48.26642 2.87646 55.91852 9.18018 67.04913 17.9812 70.89545 19.00098 66.91644 20.59351 65.60492 22.94116 63.58344 24.56177 62.18829 28.73218 59.59113 31.03906 61.216M43.04883 88.02948C47.51196 87.57709 49.92944 82.29156 49.10791 77.60223 47.98242 71.18085 39.8501 70.26031 35.93896 72.64557 33.36646 74.2149 31.45532 76.039 31.50464 80.07684 31.56885 85.35419 35.1311 87.23663 39.81128 88.02545 39.75854 87.1922 39.79395 86.41803 39.55811 85.69904 39.53125 85.61713 37.09766 81.69659 42.07788 82.43353 44.78564 82.83466 44.51855 83.20721 44.29126 85.47064L42.43213 86.263 43.04883 88.02948M44.12793 91.33185C46.77344 95.96283 49.01514 94.57391 51.36597 96.76361 51.40381 101.7121 42.8728 97.59418 41.14624 91.39337 35.34619 91.05096 29.75806 89.3609 28.70703 82.54816 26.66943 82.2851 23.76929 80.9151 22.26709 79.8476 21.02148 78.96222 21.91846 79.63531 20.93286 78.61334 18.25269 75.83453 19.24316 75.76678 18.31055 74.7027 17.67163 73.97357 16.10425 73.73444 15.13599 73.18817 9.08887 69.77753 4.45142 64.19098 3.99048 56.86627 3.88208 55.14703 4.46875 53.80463 4.40552 52.82404 4.33862 51.78363 2.15649 50.10504 2.09863 46.32892 2 39.90009 6.08765 40.66595 7.39429 33.93854 8.16235 29.98651 11.73535 14.06573 12.60596 11.94586 13.68433 9.3219 14.79053 8.66956 17.03345 7.21429 22.95972 3.36969 31.70532 2.30298 38.69189 2.17395 48.12622 2 56.60156 3.30365 64.08545 8.58997 68.25977 11.53827 70.27515 31.23102 72.14819 36.48029 72.86621 38.49347 76.80615 39.29059 77.02295 45.23676 77.1731 49.36066 75.14746 50.33344 74.80615 52.24384 74.49536 53.98053 75.74902 56.60211 74.91943 59.99335 74.31689 62.45697 73.24536 64.35944 72.09253 65.91022 71.22681 67.07465 71.12622 67.70953 70.06152 68.62177 69.198 69.36163 68.573 69.58929 67.46313 70.41803 63.41431 73.44122 63.98413 70.70245 62.40259 74.34747 60.91333 77.78058 56.87427 81.22211 52.12109 81.83063 51.03906 89.42413 45.52295 90.34479 44.12793 91.33185"/>
<path transform="matrix(1,0,0,-1,0,103.7121)" d="M48.54858 62.4621C50.88135 60.81573 53.53638 62.48846 56.20874 59.85223 56.96924 59.10223 57.62183 57.49579 58.42676 56.93121 60.11279 55.74738 60.83398 57.46893 60.34326 59.19037 58.80786 64.57928 48.16187 67.82782 48.54858 62.4621" fill="#89cff0" fill-rule="evenodd"/>
<path transform="matrix(1,0,0,-1,0,103.7121)" stroke-width="1" stroke-linecap="butt" stroke-miterlimit="10" stroke-linejoin="miter" fill="none" stroke="#89cff0" d="M48.54858 62.4621C50.88135 60.81573 53.53638 62.48846 56.20874 59.85223 56.96924 59.10223 57.62183 57.49579 58.42676 56.93121 60.11279 55.74738 60.83398 57.46893 60.34326 59.19037 58.80786 64.57928 48.16187 67.82782 48.54858 62.4621"/>
<path transform="matrix(1,0,0,-1,0,103.7121)" d="M34.61694 16.99274C32.40161 12.24298 42.02783 9.50665 44.49438 14.4826 45.06274 15.62933 45.01147 17.08673 43.41016 17.04706 41.36304 16.9964 43.12695 15.93024 40.78223 14.86652 39.86035 14.44806 38.3291 14.32819 37.48193 15.00702 35.8894 16.28461 37.89478 17.4035 34.61694 16.99274" fill="#89cff0" fill-rule="evenodd"/>
<path transform="matrix(1,0,0,-1,0,103.7121)" stroke-width="1" stroke-linecap="butt" stroke-miterlimit="10" stroke-linejoin="miter" fill="none" stroke="#89cff0" d="M34.61694 16.99274C32.40161 12.24298 42.02783 9.50665 44.49438 14.4826 45.06274 15.62933 45.01147 17.08673 43.41016 17.04706 41.36304 16.9964 43.12695 15.93024 40.78223 14.86652 39.86035 14.44806 38.3291 14.32819 37.48193 15.00702 35.8894 16.28461 37.89478 17.4035 34.61694 16.99274"/>
<path transform="matrix(1,0,0,-1,0,103.7121)" d="M25.07178 51.54474C24.16577 52.47906 23.08643 51.71088 21.37231 51.95441 18.3335 52.38666 18.42163 54.48932 15.84424 54.28143 13.63965 50.79498 21.09131 47.25812 24.21362 48.81525 25.20288 49.30853 25.99585 50.5921 25.07178 51.54474" fill="#89cff0" fill-rule="evenodd"/>
<path transform="matrix(1,0,0,-1,0,103.7121)" stroke-width="1" stroke-linecap="butt" stroke-miterlimit="10" stroke-linejoin="miter" fill="none" stroke="#89cff0" d="M25.07178 51.54474C24.16577 52.47906 23.08643 51.71088 21.37231 51.95441 18.3335 52.38666 18.42163 54.48932 15.84424 54.28143 13.63965 50.79498 21.09131 47.25812 24.21362 48.81525 25.20288 49.30853 25.99585 50.5921 25.07178 51.54474"/>
<path transform="matrix(1,0,0,-1,0,103.7121)" d="M47.40332 18.49225C49.5835 20.1358 47.16675 21.7912 50.32837 21.95526 51.61743 19.83832 50.30298 18.7287 52.948 18.73224 55.92993 23.86383 48.01001 27.21051 46.28833 22.72748 45.52661 20.74323 45.47656 19.21173 47.40332 18.49225" fill="#89cff0" fill-rule="evenodd"/>
<path transform="matrix(1,0,0,-1,0,103.7121)" stroke-width="1" stroke-linecap="butt" stroke-miterlimit="10" stroke-linejoin="miter" fill="none" stroke="#89cff0" d="M47.40332 18.49225C49.5835 20.1358 47.16675 21.7912 50.32837 21.95526 51.61743 19.83832 50.30298 18.7287 52.948 18.73224 55.92993 23.86383 48.01001 27.21051 46.28833 22.72748 45.52661 20.74323 45.47656 19.21173 47.40332 18.49225"/>
<path transform="matrix(1,0,0,-1,0,103.7121)" d="M26.19287 18.70453C29.71411 19.28851 26.20361 21.21747 29.72681 21.85272 31.10205 20.26923 30.26465 18.5694 32.77197 18.60333 33.70435 21.18793 32.37061 24.6037 29.26196 24.60455 26.00977 24.60565 24.62793 20.94879 26.19287 18.70453" fill="#89cff0" fill-rule="evenodd"/>
<path transform="matrix(1,0,0,-1,0,103.7121)" stroke-width="1" stroke-linecap="butt" stroke-miterlimit="10" stroke-linejoin="miter" fill="none" stroke="#89cff0" d="M26.19287 18.70453C29.71411 19.28851 26.20361 21.21747 29.72681 21.85272 31.10205 20.26923 30.26465 18.5694 32.77197 18.60333 33.70435 21.18793 32.37061 24.6037 29.26196 24.60455 26.00977 24.60565 24.62793 20.94879 26.19287 18.70453"/>
<path transform="matrix(1,0,0,-1,0,103.7121)" d="M46.46167 50.48212C47.14014 51.53082 46.6936 54.0257 44.41187 53.39813 44.30762 53.3692 40.40015 51.52887 40.39795 51.52716 38.83398 50.18976 39.86646 48.38763 42.29004 48.76093 43.27612 48.91278 46.34521 50.30206 46.46167 50.48212" fill="#89cff0" fill-rule="evenodd"/>
<path transform="matrix(1,0,0,-1,0,103.7121)" stroke-width="1" stroke-linecap="butt" stroke-miterlimit="10" stroke-linejoin="miter" fill="none" stroke="#89cff0" d="M46.46167 50.48212C47.14014 51.53082 46.6936 54.0257 44.41187 53.39813 44.30762 53.3692 40.40015 51.52887 40.39795 51.52716 38.83398 50.18976 39.86646 48.38763 42.29004 48.76093 43.27612 48.91278 46.34521 50.30206 46.46167 50.48212"/>
<path transform="matrix(1,0,0,-1,0,103.7121)" d="M68.93481 34.84283 69.17651 35.78192 68.66577 35.36798 68.93481 34.84283" fill="#89cff0" fill-rule="evenodd"/>
<path transform="matrix(1,0,0,-1,0,103.7121)" stroke-width="1" stroke-linecap="butt" stroke-miterlimit="10" stroke-linejoin="miter" fill="none" stroke="#89cff0" d="M68.93481 34.84283 69.17651 35.78192 68.66577 35.36798 68.93481 34.84283"/>
<path transform="matrix(1,0,0,-1,0,103.7121)" d="M10.0415 35.47211 10.36987 35.83856 9.84619 36.14813 10.0415 35.47211" fill="#89cff0" fill-rule="evenodd"/>
<path transform="matrix(1,0,0,-1,0,103.7121)" stroke-width="1" stroke-linecap="butt" stroke-miterlimit="10" stroke-linejoin="miter" fill="none" stroke="#89cff0" d="M10.0415 35.47211 10.36987 35.83856 9.84619 36.14813 10.0415 35.47211"/>
</svg>
