<svg xmlns="http://www.w3.org/2000/svg" xmlns:xlink="http://www.w3.org/1999/xlink" xmlns:inkscape="http://www.inkscape.org/namespaces/inkscape" version="1.1" width="526.02957" height="141.21933" viewBox="0 0 526.02957 141.21933">
<path transform="matrix(1,0,0,-1,0,141.21933)" d="M380.88258 89.67052C378.41957 86.60057 376.48268 83.3535 376.31373 79.52049 375.84889 68.97948 388.8507 62.51427 391.0365 52.19249 391.67079 49.2014 391.32569 46.05748 390.39088 43.14622 387.9978 35.70445 381.85768 29.8745 374.81874 26.4735 367.77857 23.07323 359.8827 21.85753 352.0797 21.3856 341.55873 20.7495 331.04579 21.12926 320.59083 22.45653 311.40065 23.62242 300.64686 23.56346 292.08949 27.39439 286.94789 29.6953 282.43287 34.20238 281.70265 39.78831 281.3097 42.80638 282.03077 45.8474 282.77259 48.79942 285.69667 60.4575 289.02955 72.3806 287.5796 84.31236 286.8877 90.01146 285.11463 95.5294 284.27674 101.20946 283.43678 106.88951 283.62367 113.00755 286.56959 117.93529 293.17579 128.98131 309.7295 130.15941 321.19374 130.55028 337.34864 131.10338 353.41578 128.3994 369.21864 125.33934 374.37086 124.34239 379.63368 123.2534 384.11073 120.51451 388.58668 117.77538 392.19288 113.02135 392.1078 107.77452 391.9895 100.57054 385.50868 95.43431 380.88258 89.67052" fill="#89cff0"/>
<path transform="matrix(1,0,0,-1,0,141.21933)" stroke-width="1" stroke-linecap="butt" stroke-miterlimit="10" stroke-linejoin="miter" fill="none" stroke="#89cff0" d="M380.88258 89.67052C378.41957 86.60057 376.48268 83.3535 376.31373 79.52049 375.84889 68.97948 388.8507 62.51427 391.0365 52.19249 391.67079 49.2014 391.32569 46.05748 390.39088 43.14622 387.9978 35.70445 381.85768 29.8745 374.81874 26.4735 367.77857 23.07323 359.8827 21.85753 352.0797 21.3856 341.55873 20.7495 331.04579 21.12926 320.59083 22.45653 311.40065 23.62242 300.64686 23.56346 292.08949 27.39439 286.94789 29.6953 282.43287 34.20238 281.70265 39.78831 281.3097 42.80638 282.03077 45.8474 282.77259 48.79942 285.69667 60.4575 289.02955 72.3806 287.5796 84.31236 286.8877 90.01146 285.11463 95.5294 284.27674 101.20946 283.43678 106.88951 283.62367 113.00755 286.56959 117.93529 293.17579 128.98131 309.7295 130.15941 321.19374 130.55028 337.34864 131.10338 353.41578 128.3994 369.21864 125.33934 374.37086 124.34239 379.63368 123.2534 384.11073 120.51451 388.58668 117.77538 392.19288 113.02135 392.1078 107.77452 391.9895 100.57054 385.50868 95.43431 380.88258 89.67052"/>
<path transform="matrix(1,0,0,-1,0,141.21933)" d="M408.22645 39.15025C406.25636 43.51341 405.4453 48.51537 404.8064 53.32115 403.03846 66.6234 401.87538 80.24327 404.6173 93.37926 406.76747 103.68517 411.57838 113.80235 419.37257 121.03331 428.32228 129.33812 440.81239 129.60326 452.42335 129.50035 466.02345 129.37926 479.6444 127.92113 492.9364 125.02452 503.66517 122.68456 515.9136 113.42735 505.3595 102.38048 502.61439 99.50731 499.14039 97.45128 496.07154 94.92528 493.52638 92.83141 491.06239 89.62035 492.19947 86.52635 493.62245 82.65013 499.78553 81.75633 500.3943 77.67332 500.9054 74.25023 497.05824 71.8723 495.75428 68.66747 493.96449 64.26439 497.33839 59.46019 501.06935 56.51524 504.79945 53.57127 509.32838 51.08836 511.15443 46.70042 513.0984 42.03026 511.20436 36.42528 507.66444 32.81346 504.1233 29.20042 499.24049 27.24217 494.37953 25.84019 475.07447 20.27513 454.47657 22.06725 434.5603 24.72215 426.34046 25.81834 417.45545 27.40233 411.86048 33.5244 410.3274 35.20128 409.1494 37.10545 408.22645 39.15025" fill="#89cff0"/>
<path transform="matrix(1,0,0,-1,0,141.21933)" stroke-width="1" stroke-linecap="butt" stroke-miterlimit="10" stroke-linejoin="miter" fill="none" stroke="#89cff0" d="M408.22645 39.15025C406.25636 43.51341 405.4453 48.51537 404.8064 53.32115 403.03846 66.6234 401.87538 80.24327 404.6173 93.37926 406.76747 103.68517 411.57838 113.80235 419.37257 121.03331 428.32228 129.33812 440.81239 129.60326 452.42335 129.50035 466.02345 129.37926 479.6444 127.92113 492.9364 125.02452 503.66517 122.68456 515.9136 113.42735 505.3595 102.38048 502.61439 99.50731 499.14039 97.45128 496.07154 94.92528 493.52638 92.83141 491.06239 89.62035 492.19947 86.52635 493.62245 82.65013 499.78553 81.75633 500.3943 77.67332 500.9054 74.25023 497.05824 71.8723 495.75428 68.66747 493.96449 64.26439 497.33839 59.46019 501.06935 56.51524 504.79945 53.57127 509.32838 51.08836 511.15443 46.70042 513.0984 42.03026 511.20436 36.42528 507.66444 32.81346 504.1233 29.20042 499.24049 27.24217 494.37953 25.84019 475.07447 20.27513 454.47657 22.06725 434.5603 24.72215 426.34046 25.81834 417.45545 27.40233 411.86048 33.5244 410.3274 35.20128 409.1494 37.10545 408.22645 39.15025"/>
<path transform="matrix(1,0,0,-1,0,141.21933)" d="M139.54003 89.32457C139.89806 76.54979 138.16686 63.4287 135.37279 51.76671 133.88878 45.56956 132.58177 38.90672 129.58885 33.22557 117.4127 10.11595 90.97801 32.8806 74.37181 36.60277 67.8098 38.07372 60.21886 37.75365 54.35692 34.15758 49.54393 31.2036 47.05199 25.25877 41.71886 23.05882 35.81773 20.6256 28.93492 23.59764 24.76805 27.94652 20.75584 32.13365 18.50291 37.6848 16.77696 43.21971 10.16075 64.4348 10.11595 87.86168 17.91783 108.66881 19.64696 113.28282 21.79466 117.82872 25.08092 121.50072 28.36693 125.17271 32.92894 127.91185 37.85069 128.15074 42.52281 128.37779 46.99669 126.39159 51.17271 124.28258 62.05492 118.78477 72.67381 112.03465 84.72081 110.15868 91.29686 109.13487 98.85802 109.99889 103.17601 115.06383 107.08983 119.65672 107.76585 126.64561 114.09386 128.81578 119.12596 130.54174 125.01585 128.98278 128.92992 125.50975 132.60985 122.24278 134.6638 117.52477 136.0587 112.80455 138.23998 105.42772 139.31175 97.44554 139.54003 89.32457" fill="#89cff0"/>
<path transform="matrix(1,0,0,-1,0,141.21933)" stroke-width="1" stroke-linecap="butt" stroke-miterlimit="10" stroke-linejoin="miter" fill="none" stroke="#89cff0" d="M139.54003 89.32457C139.89806 76.54979 138.16686 63.4287 135.37279 51.76671 133.88878 45.56956 132.58177 38.90672 129.58885 33.22557 117.4127 10.11595 90.97801 32.8806 74.37181 36.60277 67.8098 38.07372 60.21886 37.75365 54.35692 34.15758 49.54393 31.2036 47.05199 25.25877 41.71886 23.05882 35.81773 20.6256 28.93492 23.59764 24.76805 27.94652 20.75584 32.13365 18.50291 37.6848 16.77696 43.21971 10.16075 64.4348 10.11595 87.86168 17.91783 108.66881 19.64696 113.28282 21.79466 117.82872 25.08092 121.50072 28.36693 125.17271 32.92894 127.91185 37.85069 128.15074 42.52281 128.37779 46.99669 126.39159 51.17271 124.28258 62.05492 118.78477 72.67381 112.03465 84.72081 110.15868 91.29686 109.13487 98.85802 109.99889 103.17601 115.06383 107.08983 119.65672 107.76585 126.64561 114.09386 128.81578 119.12596 130.54174 125.01585 128.98278 128.92992 125.50975 132.60985 122.24278 134.6638 117.52477 136.0587 112.80455 138.23998 105.42772 139.31175 97.44554 139.54003 89.32457"/>
<path transform="matrix(1,0,0,-1,0,141.21933)" d="M201.06432 22.93639C211.69127 22.02757 222.44628 22.74754 232.6992 25.60948 242.0952 28.23265 251.1992 32.79564 257.64833 40.11461 266.48829 50.14561 269.17433 63.80663 270.18544 76.74852 271.43238 92.70348 271.53846 111.55443 258.20423 122.88353 253.3734 126.98851 246.77123 129.3076 240.56615 128.00756 228.0421 125.38451 220.51927 109.53648 207.72338 109.52257 193.25426 109.50755 184.69725 129.93065 170.25145 129.11742 164.58116 128.79772 159.55626 124.97935 156.44237 120.23045 152.03026 113.50047 150.93639 105.15562 150.5974 97.11534 150.05138 84.19139 151.1632 71.19847 153.89635 58.55455 155.5211 51.03539 157.85045 43.38646 162.8773 37.56346 171.97032 27.03355 187.87242 24.06541 201.06432 22.93639" fill="#89cff0"/>
<path transform="matrix(1,0,0,-1,0,141.21933)" stroke-width="1" stroke-linecap="butt" stroke-miterlimit="10" stroke-linejoin="miter" fill="none" stroke="#89cff0" d="M201.06432 22.93639C211.69127 22.02757 222.44628 22.74754 232.6992 25.60948 242.0952 28.23265 251.1992 32.79564 257.64833 40.11461 266.48829 50.14561 269.17433 63.80663 270.18544 76.74852 271.43238 92.70348 271.53846 111.55443 258.20423 122.88353 253.3734 126.98851 246.77123 129.3076 240.56615 128.00756 228.0421 125.38451 220.51927 109.53648 207.72338 109.52257 193.25426 109.50755 184.69725 129.93065 170.25145 129.11742 164.58116 128.79772 159.55626 124.97935 156.44237 120.23045 152.03026 113.50047 150.93639 105.15562 150.5974 97.11534 150.05138 84.19139 151.1632 71.19847 153.89635 58.55455 155.5211 51.03539 157.85045 43.38646 162.8773 37.56346 171.97032 27.03355 187.87242 24.06541 201.06432 22.93639"/>
</svg>
