<svg xmlns="http://www.w3.org/2000/svg" xmlns:xlink="http://www.w3.org/1999/xlink" xmlns:inkscape="http://www.inkscape.org/namespaces/inkscape" version="1.1" width="317.28608" height="188.33551" viewBox="0 0 317.28608 188.33551">
<path transform="matrix(1,0,0,-1,0,188.33551)" d="M86.43393 50.86667C86.41855 57.50827 85.91318 63.58261 83.84164 68.58273 82.24033 72.44736 77.87778 77.97922 72.07187 76.80307 62.84872 74.93478 65.62314 58.69455 45.91415 65.40085 41.14731 67.02267 36.48178 69.7811 32.23007 71.99838 27.29428 74.57285 22.89023 77.18124 16.7977 73.69662 8.01303 68.67245 6.16831 57.35825 6.13681 45.0715 6.10166 32.20932 7.5604 17.11203 15.94956 11.45969 17.77329 10.23056 21.59213 8.49435 24.11582 10.10934 25.54086 11.02084 32.09433 23.53049 44.92343 18.91647 52.20639 16.29733 67.95346 6.10165 76.31821 12.54282 85.51523 19.62485 86.4642 37.78244 86.43393 50.86667" fill="#ffb7ce" fill-rule="evenodd"/>
<path transform="matrix(1,0,0,-1,0,188.33551)" stroke-width="1" stroke-linecap="butt" stroke-miterlimit="10" stroke-linejoin="miter" fill="none" stroke="#ffb7ce" d="M86.43393 50.86667C86.41855 57.50827 85.91318 63.58261 83.84164 68.58273 82.24033 72.44736 77.87778 77.97922 72.07187 76.80307 62.84872 74.93478 65.62314 58.69455 45.91415 65.40085 41.14731 67.02267 36.48178 69.7811 32.23007 71.99838 27.29428 74.57285 22.89023 77.18124 16.7977 73.69662 8.01303 68.67245 6.16831 57.35825 6.13681 45.0715 6.10166 32.20932 7.5604 17.11203 15.94956 11.45969 17.77329 10.23056 21.59213 8.49435 24.11582 10.10934 25.54086 11.02084 32.09433 23.53049 44.92343 18.91647 52.20639 16.29733 67.95346 6.10165 76.31821 12.54282 85.51523 19.62485 86.4642 37.78244 86.43393 50.86667"/>
<path transform="matrix(1,0,0,-1,0,188.33551)" d="M91.00009 49.21103C91.56015 43.15927 91.75204 38.38889 93.1788 32.77988 97.01132 17.71555 108.02841 9.91293 125.32944 9.89926 144.49082 9.88425 156.07675 16.91672 161.0853 32.48605 164.82065 44.09604 167.04917 70.57736 153.27573 75.48361 144.72763 78.52829 138.22226 70.78488 133.99936 67.43893 125.66147 60.83163 120.78549 66.09775 115.31259 71.0621 109.70566 76.1478 102.3204 79.00204 96.5206 71.81223 91.98471 66.18942 90.97714 58.72263 91.00009 49.21103" fill="#ffb7ce" fill-rule="evenodd"/>
<path transform="matrix(1,0,0,-1,0,188.33551)" stroke-width="1" stroke-linecap="butt" stroke-miterlimit="10" stroke-linejoin="miter" fill="none" stroke="#ffb7ce" d="M91.00009 49.21103C91.56015 43.15927 91.75204 38.38889 93.1788 32.77988 97.01132 17.71555 108.02841 9.91293 125.32944 9.89926 144.49082 9.88425 156.07675 16.91672 161.0853 32.48605 164.82065 44.09604 167.04917 70.57736 153.27573 75.48361 144.72763 78.52829 138.22226 70.78488 133.99936 67.43893 125.66147 60.83163 120.78549 66.09775 115.31259 71.0621 109.70566 76.1478 102.3204 79.00204 96.5206 71.81223 91.98471 66.18942 90.97714 58.72263 91.00009 49.21103"/>
<path transform="matrix(1,0,0,-1,0,188.33551)" d="M307.11705 65.7684C309.85899 77.06845 290.79673 76.7756 281.71714 77.67758 276.69956 78.17587 267.83067 77.87997 263.12583 77.46164 256.37559 76.86154 253.0765 76.23044 249.08164 72.81247 243.43076 67.97775 241.63315 53.12668 241.24179 43.01413 240.87216 33.47726 240.86142 19.20615 249.50254 13.61325 255.32309 9.84543 277.36607 9.34372 283.67295 10.06479 290.08946 10.79807 295.01963 10.54099 300.24058 12.57602 307.71568 15.48947 311.18443 23.55148 303.74766 28.93112 302.1268 30.10349 292.45884 34.73239 298.35728 39.28293 306.42784 45.50888 299.19688 47.98044 297.61314 49.71103 295.80796 51.68356 296.48497 54.40085 297.97398 56.22165 301.56748 60.61667 305.7413 60.09799 307.11705 65.7684" fill="#ffb7ce" fill-rule="evenodd"/>
<path transform="matrix(1,0,0,-1,0,188.33551)" stroke-width="1" stroke-linecap="butt" stroke-miterlimit="10" stroke-linejoin="miter" fill="none" stroke="#ffb7ce" d="M307.11705 65.7684C309.85899 77.06845 290.79673 76.7756 281.71714 77.67758 276.69956 78.17587 267.83067 77.87997 263.12583 77.46164 256.37559 76.86154 253.0765 76.23044 249.08164 72.81247 243.43076 67.97775 241.63315 53.12668 241.24179 43.01413 240.87216 33.47726 240.86142 19.20615 249.50254 13.61325 255.32309 9.84543 277.36607 9.34372 283.67295 10.06479 290.08946 10.79807 295.01963 10.54099 300.24058 12.57602 307.71568 15.48947 311.18443 23.55148 303.74766 28.93112 302.1268 30.10349 292.45884 34.73239 298.35728 39.28293 306.42784 45.50888 299.19688 47.98044 297.61314 49.71103 295.80796 51.68356 296.48497 54.40085 297.97398 56.22165 301.56748 60.61667 305.7413 60.09799 307.11705 65.7684"/>
<path transform="matrix(1,0,0,-1,0,188.33551)" d="M234.26645 58.73141C235.63706 64.33749 232.33213 68.90805 229.25229 71.16391 219.21103 78.51865 194.27036 78.62265 182.87143 76.10324 178.15756 75.06125 173.94589 72.85422 173.07627 67.7164 171.82529 60.32504 174.35117 47.61935 171.57993 33.60788 167.53379 13.15085 169.50693 9.6268 198.18296 9.47824 210.85727 9.41245 220.73154 9.12424 228.11362 15.56259 231.19467 18.24924 233.81894 22.25717 233.82944 28.10019 233.84775 38.39511 222.63193 37.2822 222.57016 43.82285 222.49985 51.26328 232.17636 50.18124 234.26645 58.73141" fill="#ffb7ce" fill-rule="evenodd"/>
<path transform="matrix(1,0,0,-1,0,188.33551)" stroke-width="1" stroke-linecap="butt" stroke-miterlimit="10" stroke-linejoin="miter" fill="none" stroke="#ffb7ce" d="M234.26645 58.73141C235.63706 64.33749 232.33213 68.90805 229.25229 71.16391 219.21103 78.51865 194.27036 78.62265 182.87143 76.10324 178.15756 75.06125 173.94589 72.85422 173.07627 67.7164 171.82529 60.32504 174.35117 47.61935 171.57993 33.60788 167.53379 13.15085 169.50693 9.6268 198.18296 9.47824 210.85727 9.41245 220.73154 9.12424 228.11362 15.56259 231.19467 18.24924 233.81894 22.25717 233.82944 28.10019 233.84775 38.39511 222.63193 37.2822 222.57016 43.82285 222.49985 51.26328 232.17636 50.18124 234.26645 58.73141"/>
<path transform="matrix(1,0,0,-1,0,188.33551)" d="M234.58676 155.59348C234.62851 172.03464 258.85948 171.32102 259.06504 156.01499 259.28477 139.67502 234.61777 140.30258 234.58676 155.59348M243.22983 179.26047C239.43027 178.39804 239.15097 179.12216 234.02304 176.45029 231.22812 174.99411 229.34214 173.46482 227.40561 171.08664 219.0975 160.88156 220.5101 144.74619 231.04892 136.72324 246.61167 124.87595 275.08848 135.2728 271.18589 159.46994 268.88829 173.71372 256.32579 182.23386 243.22983 179.26047" fill="#ffb7ce" fill-rule="evenodd"/>
<path transform="matrix(1,0,0,-1,0,188.33551)" stroke-width="1" stroke-linecap="butt" stroke-miterlimit="10" stroke-linejoin="miter" fill="none" stroke="#ffb7ce" d="M234.58676 155.59348C234.62851 172.03464 258.85948 171.32102 259.06504 156.01499 259.28477 139.67502 234.61777 140.30258 234.58676 155.59348M243.22983 179.26047C239.43027 178.39804 239.15097 179.12216 234.02304 176.45029 231.22812 174.99411 229.34214 173.46482 227.40561 171.08664 219.0975 160.88156 220.5101 144.74619 231.04892 136.72324 246.61167 124.87595 275.08848 135.2728 271.18589 159.46994 268.88829 173.71372 256.32579 182.23386 243.22983 179.26047"/>
<path transform="matrix(1,0,0,-1,0,188.33551)" d="M44.61264 172.97898 44.63437 136.55234C44.63217 132.7219 45.95419 133.71884 52.4913 133.64914L54.87631 133.74802C58.34189 134.4559 56.28793 140.84433 56.86288 149.40268 59.37143 150.38877 69.62656 149.92649 73.22104 149.86728 76.72177 149.80966 75.65195 148.18186 75.64365 140.6915 75.63437 132.21787 74.76523 133.89402 84.98373 133.42087 86.38193 133.35605 87.51425 133.59043 87.92343 135.45676L87.65219 174.63474C87.65097 178.43515 87.99033 178.79514 83.96005 178.7761 81.34799 178.76389 78.23178 179.00876 76.09482 178.34299 74.38437 174.99948 75.96005 167.49533 75.19223 161.85324 68.19882 161.81162 63.92807 162.00925 57.03964 161.31333 54.01083 166.30246 60.0184 178.73642 52.88998 178.75315 43.13315 178.77634 44.58383 179.22483 44.61264 172.97898" fill="#ffb7ce" fill-rule="evenodd"/>
<path transform="matrix(1,0,0,-1,0,188.33551)" stroke-width="1" stroke-linecap="butt" stroke-miterlimit="10" stroke-linejoin="miter" fill="none" stroke="#ffb7ce" d="M44.61264 172.97898 44.63437 136.55234C44.63217 132.7219 45.95419 133.71884 52.4913 133.64914L54.87631 133.74802C58.34189 134.4559 56.28793 140.84433 56.86288 149.40268 59.37143 150.38877 69.62656 149.92649 73.22104 149.86728 76.72177 149.80966 75.65195 148.18186 75.64365 140.6915 75.63437 132.21787 74.76523 133.89402 84.98373 133.42087 86.38193 133.35605 87.51425 133.59043 87.92343 135.45676L87.65219 174.63474C87.65097 178.43515 87.99033 178.79514 83.96005 178.7761 81.34799 178.76389 78.23178 179.00876 76.09482 178.34299 74.38437 174.99948 75.96005 167.49533 75.19223 161.85324 68.19882 161.81162 63.92807 162.00925 57.03964 161.31333 54.01083 166.30246 60.0184 178.73642 52.88998 178.75315 43.13315 178.77634 44.58383 179.22483 44.61264 172.97898"/>
<path transform="matrix(1,0,0,-1,0,188.33551)" d="M101.75864 173.39279C101.93198 167.08457 102.4249 158.77536 102.1644 152.69589L102.45883 141.5195C102.31015 131.1926 100.23203 133.25485 118.29233 133.25644 136.51157 133.2579 134.4227 131.89646 134.42075 139.03574 134.41928 139.77194 134.47739 140.80771 134.39878 141.51035 133.93003 145.69516 129.4581 144.22519 122.43173 144.39157L115.02841 144.75009C114.15488 152.13193 113.31406 150.67173 131.09726 150.5997 132.07382 152.56406 132.24033 158.63925 131.1578 160.99204 130.108 162.00437 120.1434 161.00461 118.70712 161.04233 117.02402 161.08652 116.27963 161.34836 114.58725 161.40879L114.60165 167.14902C117.13852 167.27964 132.79477 167.59995 133.59873 168.40732 134.2208 169.03195 134.02744 173.14426 134.02158 174.63474 134.0123 176.85898 134.50717 178.12204 132.3978 178.42404L105.04648 178.38864C100.88925 178.38718 101.75327 177.48117 101.75864 173.39279" fill="#ffb7ce" fill-rule="evenodd"/>
<path transform="matrix(1,0,0,-1,0,188.33551)" stroke-width="1" stroke-linecap="butt" stroke-miterlimit="10" stroke-linejoin="miter" fill="none" stroke="#ffb7ce" d="M101.75864 173.39279C101.93198 167.08457 102.4249 158.77536 102.1644 152.69589L102.45883 141.5195C102.31015 131.1926 100.23203 133.25485 118.29233 133.25644 136.51157 133.2579 134.4227 131.89646 134.42075 139.03574 134.41928 139.77194 134.47739 140.80771 134.39878 141.51035 133.93003 145.69516 129.4581 144.22519 122.43173 144.39157L115.02841 144.75009C114.15488 152.13193 113.31406 150.67173 131.09726 150.5997 132.07382 152.56406 132.24033 158.63925 131.1578 160.99204 130.108 162.00437 120.1434 161.00461 118.70712 161.04233 117.02402 161.08652 116.27963 161.34836 114.58725 161.40879L114.60165 167.14902C117.13852 167.27964 132.79477 167.59995 133.59873 168.40732 134.2208 169.03195 134.02744 173.14426 134.02158 174.63474 134.0123 176.85898 134.50717 178.12204 132.3978 178.42404L105.04648 178.38864C100.88925 178.38718 101.75327 177.48117 101.75864 173.39279"/>
<path transform="matrix(1,0,0,-1,0,188.33551)" d="M146.04746 175.87656 146.45493 153.10984C146.45102 133.79965 144.62339 133.27487 151.82187 133.26328L172.51865 133.254C176.34214 133.23752 175.39975 134.84873 175.4122 141.93344 175.4188 145.61191 174.55234 144.45761 164.23984 144.44199 162.16196 144.43918 160.26132 144.18235 158.83432 144.80686 157.89096 147.27194 158.46665 168.64536 158.4625 174.65927 158.45908 179.33444 157.72934 178.47934 149.7286 178.47592 146.9122 178.47483 146.2435 178.5422 146.04746 175.87656" fill="#ffb7ce" fill-rule="evenodd"/>
<path transform="matrix(1,0,0,-1,0,188.33551)" stroke-width="1" stroke-linecap="butt" stroke-miterlimit="10" stroke-linejoin="miter" fill="none" stroke="#ffb7ce" d="M146.04746 175.87656 146.45493 153.10984C146.45102 133.79965 144.62339 133.27487 151.82187 133.26328L172.51865 133.254C176.34214 133.23752 175.39975 134.84873 175.4122 141.93344 175.4188 145.61191 174.55234 144.45761 164.23984 144.44199 162.16196 144.43918 160.26132 144.18235 158.83432 144.80686 157.89096 147.27194 158.46665 168.64536 158.4625 174.65927 158.45908 179.33444 157.72934 178.47934 149.7286 178.47592 146.9122 178.47483 146.2435 178.5422 146.04746 175.87656"/>
<path transform="matrix(1,0,0,-1,0,188.33551)" d="M185.25473 172.56516 185.85263 135.39096C186.52133 132.06003 191.01596 133.56443 194.4537 133.56833 194.72519 133.56858 212.54673 133.10153 213.61167 134.03147 214.75351 135.02902 214.47373 142.5853 214.30014 144.38425 211.13217 144.43186 199.25815 144.0599 198.29599 144.80905 196.65732 146.08469 197.36923 155.384 197.36045 158.07724L197.3519 172.15097C197.34384 178.24973 197.45737 178.74887 191.97397 178.74607 184.13242 178.73947 185.25473 178.41745 185.25473 172.56516" fill="#ffb7ce" fill-rule="evenodd"/>
<path transform="matrix(1,0,0,-1,0,188.33551)" stroke-width="1" stroke-linecap="butt" stroke-miterlimit="10" stroke-linejoin="miter" fill="none" stroke="#ffb7ce" d="M185.25473 172.56516 185.85263 135.39096C186.52133 132.06003 191.01596 133.56443 194.4537 133.56833 194.72519 133.56858 212.54673 133.10153 213.61167 134.03147 214.75351 135.02902 214.47373 142.5853 214.30014 144.38425 211.13217 144.43186 199.25815 144.0599 198.29599 144.80905 196.65732 146.08469 197.36923 155.384 197.36045 158.07724L197.3519 172.15097C197.34384 178.24973 197.45737 178.74887 191.97397 178.74607 184.13242 178.73947 185.25473 178.41745 185.25473 172.56516"/>
<path transform="matrix(1,0,0,-1,0,188.33551)" d="M171.25547 110.50314C171.95664 112.54941 171.01816 116.57431 172.10483 118.2822 175.33994 114.52426 172.8917 110.81381 177.92343 110.50082 178.97568 112.457 179.39316 115.7673 180.79746 117.45993 181.76132 115.92783 181.64023 113.25363 181.64902 110.91245 183.9813 110.5416 182.9393 110.68515 185.327 110.90134 185.32895 113.94516 185.10044 117.63144 184.72324 120.60544 184.05942 125.83798 186.10263 126.43295 180.31284 126.20187 179.31894 124.04526 178.05747 120.00534 176.65805 118.36557 175.30136 119.52463 173.84116 124.33054 172.93051 126.23337L168.18735 126.31113 167.98691 110.88998C169.05673 110.62094 169.83066 110.59128 171.25547 110.50314" fill="#ffb7ce" fill-rule="evenodd"/>
<path transform="matrix(1,0,0,-1,0,188.33551)" stroke-width="1" stroke-linecap="butt" stroke-miterlimit="10" stroke-linejoin="miter" fill="none" stroke="#ffb7ce" d="M171.25547 110.50314C171.95664 112.54941 171.01816 116.57431 172.10483 118.2822 175.33994 114.52426 172.8917 110.81381 177.92343 110.50082 178.97568 112.457 179.39316 115.7673 180.79746 117.45993 181.76132 115.92783 181.64023 113.25363 181.64902 110.91245 183.9813 110.5416 182.9393 110.68515 185.327 110.90134 185.32895 113.94516 185.10044 117.63144 184.72324 120.60544 184.05942 125.83798 186.10263 126.43295 180.31284 126.20187 179.31894 124.04526 178.05747 120.00534 176.65805 118.36557 175.30136 119.52463 173.84116 124.33054 172.93051 126.23337L168.18735 126.31113 167.98691 110.88998C169.05673 110.62094 169.83066 110.59128 171.25547 110.50314"/>
<path transform="matrix(1,0,0,-1,0,188.33551)" d="M85.96152 110.87668C90.23715 110.77829 89.1185 110.30466 89.34213 118.31345 91.37289 116.69589 91.32553 112.8989 93.04184 110.85861L95.5206 110.88071C96.49814 112.89804 96.72348 116.07736 98.49838 117.48447L99.27304 110.87949 102.55356 110.9144C102.72397 114.61765 102.14023 117.16928 102.14706 120.82553 102.15976 127.86703 101.43784 126.63925 98.01596 126.58798 96.94589 124.77158 95.06747 118.9985 93.93784 117.99277 92.47812 120.30612 91.50668 124.13925 90.12021 126.59567L86.0206 126.58151C85.91245 120.91391 85.27451 116.29343 85.96152 110.87668" fill="#ffb7ce" fill-rule="evenodd"/>
<path transform="matrix(1,0,0,-1,0,188.33551)" stroke-width="1" stroke-linecap="butt" stroke-miterlimit="10" stroke-linejoin="miter" fill="none" stroke="#ffb7ce" d="M85.96152 110.87668C90.23715 110.77829 89.1185 110.30466 89.34213 118.31345 91.37289 116.69589 91.32553 112.8989 93.04184 110.85861L95.5206 110.88071C96.49814 112.89804 96.72348 116.07736 98.49838 117.48447L99.27304 110.87949 102.55356 110.9144C102.72397 114.61765 102.14023 117.16928 102.14706 120.82553 102.15976 127.86703 101.43784 126.63925 98.01596 126.58798 96.94589 124.77158 95.06747 118.9985 93.93784 117.99277 92.47812 120.30612 91.50668 124.13925 90.12021 126.59567L86.0206 126.58151C85.91245 120.91391 85.27451 116.29343 85.96152 110.87668"/>
<path transform="matrix(1,0,0,-1,0,188.33551)" d="M133.63242 110.83591C134.46982 112.91306 133.96567 116.8309 134.05698 119.54587 137.15512 118.28391 137.38413 109.21616 143.12705 110.44638 145.04306 110.8569 144.38974 112.64096 144.35337 115.02438L144.40146 124.19357C144.3331 126.13559 144.69028 125.71835 143.46176 126.16367 139.08798 127.74936 140.38193 122.57101 140.1932 117.96335 138.9708 118.43735 134.90415 125.36484 134.04453 126.59201 129.483 126.61862 130.2396 128.24204 130.28598 118.33884 130.31504 112.1832 129.2645 109.15353 133.63242 110.83591" fill="#ffb7ce" fill-rule="evenodd"/>
<path transform="matrix(1,0,0,-1,0,188.33551)" stroke-width="1" stroke-linecap="butt" stroke-miterlimit="10" stroke-linejoin="miter" fill="none" stroke="#ffb7ce" d="M133.63242 110.83591C134.46982 112.91306 133.96567 116.8309 134.05698 119.54587 137.15512 118.28391 137.38413 109.21616 143.12705 110.44638 145.04306 110.8569 144.38974 112.64096 144.35337 115.02438L144.40146 124.19357C144.3331 126.13559 144.69028 125.71835 143.46176 126.16367 139.08798 127.74936 140.38193 122.57101 140.1932 117.96335 138.9708 118.43735 134.90415 125.36484 134.04453 126.59201 129.483 126.61862 130.2396 128.24204 130.28598 118.33884 130.31504 112.1832 129.2645 109.15353 133.63242 110.83591"/>
<path transform="matrix(1,0,0,-1,0,188.33551)" d="M155.19272 116.32858C155.17758 117.91965 155.64682 118.60483 156.02817 119.92734 156.37412 119.47531 157.26792 118.08859 157.37314 117.23874 157.52915 115.9808 156.53403 116.25827 155.19272 116.32858M153.5206 112.95554 158.77768 112.87656C159.49619 112.0029 159.54868 111.19638 160.40464 110.74155 160.40708 110.74008 164.36679 109.01413 162.85434 113.18271 160.73374 119.0289 159.28745 126.38705 156.33823 126.54514 153.71494 126.68576 153.60923 123.98154 152.3453 120.72397 151.52036 118.59824 149.06186 112.96274 148.94199 110.87131L152.62314 110.89706 153.5206 112.95554" fill="#ffb7ce" fill-rule="evenodd"/>
<path transform="matrix(1,0,0,-1,0,188.33551)" stroke-width="1" stroke-linecap="butt" stroke-miterlimit="10" stroke-linejoin="miter" fill="none" stroke="#ffb7ce" d="M155.19272 116.32858C155.17758 117.91965 155.64682 118.60483 156.02817 119.92734 156.37412 119.47531 157.26792 118.08859 157.37314 117.23874 157.52915 115.9808 156.53403 116.25827 155.19272 116.32858M153.5206 112.95554 158.77768 112.87656C159.49619 112.0029 159.54868 111.19638 160.40464 110.74155 160.40708 110.74008 164.36679 109.01413 162.85434 113.18271 160.73374 119.0289 159.28745 126.38705 156.33823 126.54514 153.71494 126.68576 153.60923 123.98154 152.3453 120.72397 151.52036 118.59824 149.06186 112.96274 148.94199 110.87131L152.62314 110.89706 153.5206 112.95554"/>
<path transform="matrix(1,0,0,-1,0,188.33551)" d="M194.48789 120.43881C194.4078 123.2009 194.76132 122.83347 197.35825 122.82724 199.05088 122.82297 201.01987 122.86948 200.21372 125.26559 199.6766 126.86301 193.07334 126.27585 190.34506 126.16989 190.08896 108.17612 189.39389 110.42966 194.45005 110.49033 196.46665 110.51474 198.83066 110.26413 200.29184 110.84348 200.71445 111.97653 200.47885 112.67014 199.98398 113.93076 197.04697 114.88742 194.35263 112.65463 194.50351 116.57919L199.47324 117.09592 199.09091 120.23813 194.48789 120.43881" fill="#ffb7ce" fill-rule="evenodd"/>
<path transform="matrix(1,0,0,-1,0,188.33551)" stroke-width="1" stroke-linecap="butt" stroke-miterlimit="10" stroke-linejoin="miter" fill="none" stroke="#ffb7ce" d="M194.48789 120.43881C194.4078 123.2009 194.76132 122.83347 197.35825 122.82724 199.05088 122.82297 201.01987 122.86948 200.21372 125.26559 199.6766 126.86301 193.07334 126.27585 190.34506 126.16989 190.08896 108.17612 189.39389 110.42966 194.45005 110.49033 196.46665 110.51474 198.83066 110.26413 200.29184 110.84348 200.71445 111.97653 200.47885 112.67014 199.98398 113.93076 197.04697 114.88742 194.35263 112.65463 194.50351 116.57919L199.47324 117.09592 199.09091 120.23813 194.48789 120.43881"/>
<path transform="matrix(1,0,0,-1,0,188.33551)" d="M225.90366 114.62692C222.01157 111.84592 221.32382 118.45541 219.84848 114.88058 218.84189 112.44089 221.35947 110.36594 225.0892 110.49765 229.13388 110.7894 231.15976 115.41354 228.60434 118.55124 227.40464 120.02438 225.41025 120.59103 224.74448 121.39438 222.25937 124.39401 227.09653 122.54977 227.98105 122.48996 228.56504 123.48105 228.79648 123.81027 228.87363 125.39804 221.25693 129.00937 216.49936 122.17795 222.36826 118.10495 224.07334 116.9216 225.69443 116.81015 225.90366 114.62692" fill="#ffb7ce" fill-rule="evenodd"/>
<path transform="matrix(1,0,0,-1,0,188.33551)" stroke-width="1" stroke-linecap="butt" stroke-miterlimit="10" stroke-linejoin="miter" fill="none" stroke="#ffb7ce" d="M225.90366 114.62692C222.01157 111.84592 221.32382 118.45541 219.84848 114.88058 218.84189 112.44089 221.35947 110.36594 225.0892 110.49765 229.13388 110.7894 231.15976 115.41354 228.60434 118.55124 227.40464 120.02438 225.41025 120.59103 224.74448 121.39438 222.25937 124.39401 227.09653 122.54977 227.98105 122.48996 228.56504 123.48105 228.79648 123.81027 228.87363 125.39804 221.25693 129.00937 216.49936 122.17795 222.36826 118.10495 224.07334 116.9216 225.69443 116.81015 225.90366 114.62692"/>
<path transform="matrix(1,0,0,-1,0,188.33551)" d="M106.72665 126.17783C107.52475 123.63364 108.60117 121.7175 109.89096 119.43954 110.59995 118.18735 111.18735 117.67953 111.28818 115.87424 111.56747 110.8895 110.08115 110.72165 115.01157 110.87985 115.78305 114.08005 114.21909 115.05612 116.38242 118.98825 117.36191 120.76791 119.95639 124.19357 119.67685 126.13107L116.22275 126.18405C114.98276 124.78293 114.72079 122.8862 113.32529 121.63864 112.1539 122.52402 111.30478 124.73019 110.42343 126.181L106.72665 126.17783" fill="#f4c2c2" fill-rule="evenodd"/>
<path transform="matrix(1,0,0,-1,0,188.33551)" stroke-width="1" stroke-linecap="butt" stroke-miterlimit="10" stroke-linejoin="miter" fill="none" stroke="#f4c2c2" d="M106.72665 126.17783C107.52475 123.63364 108.60117 121.7175 109.89096 119.43954 110.59995 118.18735 111.18735 117.67953 111.28818 115.87424 111.56747 110.8895 110.08115 110.72165 115.01157 110.87985 115.78305 114.08005 114.21909 115.05612 116.38242 118.98825 117.36191 120.76791 119.95639 124.19357 119.67685 126.13107L116.22275 126.18405C114.98276 124.78293 114.72079 122.8862 113.32529 121.63864 112.1539 122.52402 111.30478 124.73019 110.42343 126.181L106.72665 126.17783"/>
<path transform="matrix(1,0,0,-1,0,188.33551)" d="M210.73471 122.48325C211.17319 108.87656 209.93466 110.50449 214.32675 110.49826 216.10117 110.4957 214.81626 124.87424 214.73178 126.16989 210.69712 126.27048 210.43735 126.85495 210.73471 122.48325" fill="#f4c2c2" fill-rule="evenodd"/>
<path transform="matrix(1,0,0,-1,0,188.33551)" stroke-width="1" stroke-linecap="butt" stroke-miterlimit="10" stroke-linejoin="miter" fill="none" stroke="#f4c2c2" d="M210.73471 122.48325C211.17319 108.87656 209.93466 110.50449 214.32675 110.49826 216.10117 110.4957 214.81626 124.87424 214.73178 126.16989 210.69712 126.27048 210.43735 126.85495 210.73471 122.48325"/>
</svg>
